<svg id="Layer_1" data-name="Layer 1" xmlns="http://www.w3.org/2000/svg" viewBox="0 0 352.56 368.64"><defs><style>.cls-1{fill:#1f79e5;stroke:#1d1d1b;stroke-miterlimit:10;}.cls-1,.cls-10,.cls-3,.cls-4,.cls-5,.cls-6,.cls-7,.cls-8{fill-rule:evenodd;}.cls-2{fill:#454b53;}.cls-3{fill:#cfd8dc;}.cls-4{fill:#ebf5fd;}.cls-5{fill:#ccced1;}.cls-6{fill:#80878d;}.cls-7{fill:#b5bcc1;}.cls-8{fill:#a0a6a9;}.cls-10,.cls-9{fill:#93999b;}</style></defs><title>blue-vault</title><path class="cls-1" d="M104.05,200.33v0ZM92.53,130v66.91H81.75V130H92.53Zm9.13,76.05h0Zm2.39,133.12v0Zm-2.39,5.72h0ZM70.23,126.58v73.75a8.08,8.08,0,0,0,2.37,5.72h0a8.07,8.07,0,0,0,5.71,2.39H92.9v48.89H78.33a8.05,8.05,0,0,0-5.7,2.37l0,0a8.05,8.05,0,0,0-2.37,5.7v73.75a8.08,8.08,0,0,0,2.37,5.72h0a8.07,8.07,0,0,0,5.71,2.39H92.9V378a13.9,13.9,0,0,0,13.85,13.85H396.92A13.9,13.9,0,0,0,410.77,378V87.79a13.9,13.9,0,0,0-13.85-13.85H106.75A13.9,13.9,0,0,0,92.9,87.79v30.69H78.33a8,8,0,0,0-5.7,2.38l0,0a8.05,8.05,0,0,0-2.37,5.7Zm22.3,142.26v66.91H81.75V268.84H92.53Zm11.52-68.48a8,8,0,0,1-2.37,5.69h0a8.05,8.05,0,0,0,2.37-5.67Zm41.05,32.51c0-28.28,12-53.9,31.38-72.45a109.85,109.85,0,0,1,150.71,0c19.39,18.55,31.38,44.17,31.38,72.45s-12,53.91-31.38,72.46a109.88,109.88,0,0,1-150.71,0C157.09,286.78,145.1,261.16,145.1,232.87Z" transform="translate(-69.73 -62.42)"/><path class="cls-2" d="M251.84,130.5a108.72,108.72,0,0,1,75.35,29.92c19.39,18.55,31.38,44.17,31.38,72.45s-12,53.91-31.38,72.46a109.88,109.88,0,0,1-150.71,0c-19.39-18.55-31.38-44.17-31.38-72.46s12-53.9,31.38-72.45a108.74,108.74,0,0,1,75.36-29.92Zm67.43,38.2a98.56,98.56,0,0,0-134.87,0,88,88,0,0,0,0,128.35,98.59,98.59,0,0,0,134.87,0,88,88,0,0,0,0-128.35Z" transform="translate(-69.73 -62.42)"/><path class="cls-2" d="M251.84,178.22a57.84,57.84,0,0,1,40.09,15.94,53.07,53.07,0,0,1,0,77.43,58.4,58.4,0,0,1-80.19,0,53.1,53.1,0,0,1,0-77.43,57.87,57.87,0,0,1,40.1-15.94ZM284,202.44a47.11,47.11,0,0,0-64.35,0,41.77,41.77,0,0,0,0,60.87,47.11,47.11,0,0,0,64.35,0,41.75,41.75,0,0,0,0-60.87Z" transform="translate(-69.73 -62.42)"/><path class="cls-2" d="M106.75,62.42H396.92a25.44,25.44,0,0,1,25.37,25.37V378a25.44,25.44,0,0,1-25.37,25.37H106.75A25.44,25.44,0,0,1,81.38,378V335.75H92.53V268.84H81.38V196.91H92.53V130H81.38V87.79a25.44,25.44,0,0,1,25.37-25.37ZM396.92,73.94H106.75A13.9,13.9,0,0,0,92.9,87.79v30.69H96a8.05,8.05,0,0,1,5.7,2.38l0,0a8.05,8.05,0,0,1,2.37,5.7v73.75a8.09,8.09,0,0,1-2.37,5.7h0a8.09,8.09,0,0,1-5.7,2.38H92.9v48.89H96a8.09,8.09,0,0,1,5.7,2.37l0,0a8.05,8.05,0,0,1,2.37,5.7v73.75a8.1,8.1,0,0,1-2.37,5.7h0a8.09,8.09,0,0,1-5.7,2.38H92.9V378a13.9,13.9,0,0,0,13.85,13.85H396.92A13.9,13.9,0,0,0,410.77,378V87.79a13.9,13.9,0,0,0-13.85-13.85Z" transform="translate(-69.73 -62.42)"/><path class="cls-2" d="M78.33,118.48H96a8.05,8.05,0,0,1,5.7,2.38l0,0a8.05,8.05,0,0,1,2.37,5.7v73.75a8.08,8.08,0,0,1-2.37,5.72h0A8.1,8.1,0,0,1,96,208.43H78.33A8.07,8.07,0,0,1,72.62,206h0a8.08,8.08,0,0,1-2.37-5.72V126.58a8.05,8.05,0,0,1,2.37-5.7l0,0a8,8,0,0,1,5.7-2.38ZM92.53,130H81.75v66.91H92.53Z" transform="translate(-69.73 -62.42)"/><path class="cls-2" d="M78.33,257.32H96a8.09,8.09,0,0,1,5.7,2.37l0,0a8.05,8.05,0,0,1,2.37,5.7v73.75a8.08,8.08,0,0,1-2.37,5.72h0A8.1,8.1,0,0,1,96,347.27H78.33a8.07,8.07,0,0,1-5.71-2.39h0a8.08,8.08,0,0,1-2.37-5.72V265.42a8.05,8.05,0,0,1,2.37-5.7l0,0a8.05,8.05,0,0,1,5.7-2.37Zm14.2,11.52H81.75v66.91H92.53Z" transform="translate(-69.73 -62.42)"/><path class="cls-2" d="M257.6,136.26a5.76,5.76,0,0,0-11.52,0v24.19a5.76,5.76,0,0,0,11.52,0Z" transform="translate(-69.73 -62.42)"/><path class="cls-2" d="M305.11,152.09a5.74,5.74,0,1,0-9.94-5.76l-12.1,20.95A5.75,5.75,0,0,0,293,173Z" transform="translate(-69.73 -62.42)"/><path class="cls-2" d="M338.38,189.54a5.74,5.74,0,0,0-5.76-9.94l-20.95,12.09a5.75,5.75,0,0,0,5.76,9.95Z" transform="translate(-69.73 -62.42)"/><path class="cls-2" d="M348.45,238.63a5.76,5.76,0,0,0,0-11.52H324.26a5.76,5.76,0,0,0,0,11.52Z" transform="translate(-69.73 -62.42)"/><path class="cls-2" d="M332.62,286.15a5.74,5.74,0,1,0,5.76-9.94l-20.95-12.1a5.75,5.75,0,0,0-5.76,9.95Z" transform="translate(-69.73 -62.42)"/><path class="cls-2" d="M295.17,319.42a5.74,5.74,0,0,0,9.94-5.76l-12.09-21a5.75,5.75,0,0,0-9.95,5.76Z" transform="translate(-69.73 -62.42)"/><path class="cls-2" d="M246.08,329.48a5.76,5.76,0,1,0,11.51,0V305.29a5.76,5.76,0,1,0-11.51,0Z" transform="translate(-69.73 -62.42)"/><path class="cls-2" d="M198.56,313.66a5.74,5.74,0,1,0,9.94,5.76l12.1-20.95a5.75,5.75,0,0,0-9.95-5.76Z" transform="translate(-69.73 -62.42)"/><path class="cls-2" d="M165.29,276.21a5.74,5.74,0,0,0,5.76,9.94L192,274.06a5.75,5.75,0,0,0-5.76-9.95Z" transform="translate(-69.73 -62.42)"/><path class="cls-2" d="M155.23,227.11a5.76,5.76,0,0,0,0,11.52h24.18a5.76,5.76,0,1,0,0-11.52Z" transform="translate(-69.73 -62.42)"/><path class="cls-2" d="M171.05,179.6a5.74,5.74,0,1,0-5.76,9.94l21,12.1a5.75,5.75,0,0,0,5.76-9.95Z" transform="translate(-69.73 -62.42)"/><path class="cls-2" d="M208.5,146.33a5.74,5.74,0,1,0-9.94,5.76L210.65,173a5.75,5.75,0,0,0,9.95-5.76Z" transform="translate(-69.73 -62.42)"/><path class="cls-2" d="M257.6,184.62a5.76,5.76,0,0,0-11.52,0V196.7a5.76,5.76,0,0,0,11.52,0Z" transform="translate(-69.73 -62.42)"/><path class="cls-2" d="M280.94,193.94a5.74,5.74,0,0,0-9.95-5.72l-6,10.47a5.74,5.74,0,0,0,9.95,5.71Z" transform="translate(-69.73 -62.42)"/><path class="cls-2" d="M296.49,213.72a5.74,5.74,0,0,0-5.72-9.95l-10.46,6a5.74,5.74,0,1,0,5.71,9.95Z" transform="translate(-69.73 -62.42)"/><path class="cls-2" d="M300.09,238.63a5.76,5.76,0,1,0,0-11.52H288a5.76,5.76,0,0,0,0,11.52Z" transform="translate(-69.73 -62.42)"/><path class="cls-2" d="M290.75,262a5.75,5.75,0,0,0,5.76-10L286,246a5.74,5.74,0,0,0-5.76,9.94Z" transform="translate(-69.73 -62.42)"/><path class="cls-2" d="M271,277.55a5.75,5.75,0,0,0,9.95-5.76l-6-10.47a5.75,5.75,0,0,0-9.95,5.76Z" transform="translate(-69.73 -62.42)"/><path class="cls-2" d="M246.08,281.13a5.76,5.76,0,1,0,11.52,0V269.05a5.76,5.76,0,1,0-11.52,0Z" transform="translate(-69.73 -62.42)"/><path class="cls-2" d="M222.73,271.81a5.74,5.74,0,0,0,10,5.71l6-10.46a5.74,5.74,0,0,0-9.95-5.72Z" transform="translate(-69.73 -62.42)"/><path class="cls-2" d="M207.16,252a5.75,5.75,0,0,0,5.76,10l10.47-6.05a5.74,5.74,0,0,0-5.76-9.94Z" transform="translate(-69.73 -62.42)"/><path class="cls-2" d="M203.58,227.11a5.76,5.76,0,0,0,0,11.52h12.08a5.76,5.76,0,0,0,0-11.52Z" transform="translate(-69.73 -62.42)"/><path class="cls-2" d="M212.9,203.77a5.74,5.74,0,1,0-5.71,9.95l10.46,6a5.74,5.74,0,0,0,5.71-9.95Z" transform="translate(-69.73 -62.42)"/><path class="cls-2" d="M232.68,188.22a5.74,5.74,0,0,0-10,5.72l6.05,10.46a5.73,5.73,0,1,0,9.94-5.71Z" transform="translate(-69.73 -62.42)"/><path class="cls-2" d="M120.55,391.81H196a5.75,5.75,0,0,1,4.44,9.42l-18.52,27.29-4.74-3.22,4.76,3.23a5.74,5.74,0,0,1-4.8,2.53h-37.8a5.76,5.76,0,0,1-5.05-3l-18.52-27.28h0a5.75,5.75,0,0,1,4.78-9Zm64.63,11.52H131.37l11,16.21h31.79Z" transform="translate(-69.73 -62.42)"/><path class="cls-2" d="M296.52,391.81H372a5.75,5.75,0,0,1,4.44,9.42l-18.52,27.29-4.75-3.22,4.77,3.23a5.74,5.74,0,0,1-4.8,2.53H315.32a5.77,5.77,0,0,1-5.05-3l-18.51-27.28h0a5.75,5.75,0,0,1,4.78-9Zm64.63,11.52H307.34l11,16.21h31.79Z" transform="translate(-69.73 -62.42)"/><path class="cls-3" d="M210.3,215.52a41.47,41.47,0,0,0-3.41,11.59h8.77a5.76,5.76,0,0,1,0,11.52h-8.77a41.35,41.35,0,0,0,3.4,11.59l7.34-4.23a5.74,5.74,0,0,1,5.76,9.94l-6.91,4a46.21,46.21,0,0,0,3.18,3.39,45.6,45.6,0,0,0,5.43,4.43l3.68-6.4a5.74,5.74,0,0,1,9.95,5.72l-3.46,6a47,47,0,0,0,10.82,2.61v-6.61a5.76,5.76,0,1,1,11.52,0v6.61a47.09,47.09,0,0,0,10.8-2.61l-3.45-6a5.75,5.75,0,0,1,9.95-5.76l3.69,6.41a45.42,45.42,0,0,0,5.42-4.42,46.21,46.21,0,0,0,3.18-3.39l-6.91-4A5.74,5.74,0,0,1,286,246l7.34,4.23a41.26,41.26,0,0,0,3.4-11.59H288a5.76,5.76,0,0,1,0-11.52h8.77a41.47,41.47,0,0,0-3.41-11.59L286,219.76a5.74,5.74,0,1,1-5.71-9.95l6.89-4a44.2,44.2,0,0,0-8.61-7.83l-3.69,6.39a5.74,5.74,0,0,1-9.95-5.71l3.46-6a47.58,47.58,0,0,0-10.81-2.62v6.62a5.76,5.76,0,0,1-11.52,0v-6.62a47.66,47.66,0,0,0-10.82,2.62l3.46,6a5.73,5.73,0,1,1-9.94,5.71L225.09,198a43.93,43.93,0,0,0-8.62,7.83l6.89,4a5.74,5.74,0,0,1-5.71,9.95Z" transform="translate(-69.73 -62.42)"/><path class="cls-4" d="M184.4,168.7a92.65,92.65,0,0,0-10.82,12.36L192,191.69a5.75,5.75,0,0,1-5.76,9.95l-18.82-10.87a87.22,87.22,0,0,0-10.61,36.34h22.6a5.76,5.76,0,1,1,0,11.52h-22.6A87.22,87.22,0,0,0,167.42,275l18.82-10.87a5.75,5.75,0,0,1,5.76,9.95l-18.42,10.63a92.65,92.65,0,0,0,10.82,12.36,94.69,94.69,0,0,0,16.47,12.61l9.78-17a5.75,5.75,0,0,1,9.95,5.76L211.05,315a98.44,98.44,0,0,0,35,8.55V305.29a5.76,5.76,0,1,1,11.51,0v18.27a98.44,98.44,0,0,0,35-8.55l-9.55-16.54a5.75,5.75,0,0,1,9.95-5.76l9.78,17a94.69,94.69,0,0,0,16.47-12.61,92,92,0,0,0,10.82-12.36l-18.42-10.63a5.75,5.75,0,0,1,5.76-9.95L336.25,275a87.22,87.22,0,0,0,10.61-36.35h-22.6a5.76,5.76,0,0,1,0-11.52h22.6a87.22,87.22,0,0,0-10.61-36.34l-18.82,10.87a5.75,5.75,0,0,1-5.76-9.95l18.42-10.63a92,92,0,0,0-10.82-12.36,94.69,94.69,0,0,0-16.47-12.61L293,173a5.75,5.75,0,0,1-9.95-5.76l9.55-16.54a98.39,98.39,0,0,0-35-8.55v18.26a5.76,5.76,0,0,1-11.52,0V142.19a98.44,98.44,0,0,0-35,8.55l9.55,16.54a5.75,5.75,0,0,1-9.95,5.76l-9.78-16.95A94.69,94.69,0,0,0,184.4,168.7Zm67.44,9.52a57.84,57.84,0,0,1,40.09,15.94,53.07,53.07,0,0,1,0,77.43,58.4,58.4,0,0,1-80.19,0,53.1,53.1,0,0,1,0-77.43A57.87,57.87,0,0,1,251.84,178.22Z" transform="translate(-69.73 -62.42)"/><polygon class="cls-3" points="12.02 67.58 12.02 134.49 17.41 134.49 22.8 134.49 22.8 67.58 17.41 67.58 12.02 67.58"/><polygon class="cls-3" points="12.02 206.42 12.02 273.33 17.41 273.33 22.8 273.33 22.8 206.42 17.41 206.42 12.02 206.42"/><polygon class="cls-5" points="115.45 340.91 61.64 340.91 72.65 357.12 104.44 357.12 115.45 340.91"/><polygon class="cls-5" points="237.61 340.91 248.62 357.12 280.41 357.12 291.42 340.91 237.61 340.91"/><path class="cls-6" d="M403.54,87.79V378a25.19,25.19,0,0,1-4,13.59A13.91,13.91,0,0,0,410.77,378V87.79a13.91,13.91,0,0,0-11.2-13.59A25.16,25.16,0,0,1,403.54,87.79Z" transform="translate(-69.73 -62.42)"/><path class="cls-7" d="M330.09,181.06a92,92,0,0,0-10.82-12.36A94.78,94.78,0,0,0,305.84,158c.88.79,1.75,1.59,2.6,2.41a103.07,103.07,0,0,1,18,22.77Z" transform="translate(-69.73 -62.42)"/><path class="cls-7" d="M336.25,190.77l-4.65,2.69a98.22,98.22,0,0,1,8,33.65h7.21A87.22,87.22,0,0,0,336.25,190.77Z" transform="translate(-69.73 -62.42)"/><path class="cls-7" d="M346.86,238.63h-7.21a98.28,98.28,0,0,1-8,33.66l4.65,2.69A87.22,87.22,0,0,0,346.86,238.63Z" transform="translate(-69.73 -62.42)"/><path class="cls-7" d="M330.09,284.69l-3.69-2.13a103.07,103.07,0,0,1-18,22.77c-.85.82-1.72,1.62-2.6,2.41a94.78,94.78,0,0,0,13.43-10.69A92,92,0,0,0,330.09,284.69Z" transform="translate(-69.73 -62.42)"/><path class="cls-8" d="M277.12,200.54a54.26,54.26,0,0,1,5.17,8.13l4.91-2.83a44.2,44.2,0,0,0-8.61-7.83Z" transform="translate(-69.73 -62.42)"/><path class="cls-8" d="M293.37,215.52l-6.92,4a52.94,52.94,0,0,1,1.41,7.61h8.92A41.47,41.47,0,0,0,293.37,215.52Z" transform="translate(-69.73 -62.42)"/><path class="cls-8" d="M296.78,238.63h-8.92a53,53,0,0,1-1.4,7.6l6.92,4A41.26,41.26,0,0,0,296.78,238.63Z" transform="translate(-69.73 -62.42)"/><path class="cls-8" d="M287.19,259.92l-4.91-2.83a54.46,54.46,0,0,1-5.15,8.11l1.46,2.53a45.42,45.42,0,0,0,5.42-4.42A46.21,46.21,0,0,0,287.19,259.92Z" transform="translate(-69.73 -62.42)"/><rect class="cls-9" x="17.63" y="206.42" width="5.17" height="66.91"/><rect class="cls-9" x="17.63" y="67.58" width="5.17" height="66.91"/><polygon class="cls-10" points="104.44 357.12 115.45 340.91 108.31 340.91 97.31 357.12 104.44 357.12"/><polygon class="cls-10" points="284.28 340.91 273.27 357.12 280.41 357.12 291.42 340.91 284.28 340.91"/></svg>