<svg width="17" height="16" viewBox="0 0 17 16" fill="none" xmlns="http://www.w3.org/2000/svg">
<path d="M16.2231 0.632568C16.0253 0.874106 15.8486 1.0909 15.6709 1.30668C15.2011 1.87737 14.7307 2.44772 14.2596 3.01773C14.2106 3.07758 14.1539 3.13065 14.091 3.17551C13.1385 3.83881 12.185 4.5017 11.2307 5.16419C11.2024 5.18203 11.1821 5.21017 11.1741 5.24267L15.5262 3.28137L15.5329 3.29476L14.6927 3.75694C14.0539 4.10799 13.4143 4.45783 12.7773 4.81152C12.7238 4.84133 12.6833 4.89771 12.6424 4.94638C11.6831 6.08478 10.725 7.22399 9.76789 8.36401C9.74276 8.39402 9.72391 8.45324 9.73566 8.48711C9.90833 8.97728 10.0865 9.46563 10.2626 9.95438C10.2682 9.96959 10.2784 9.98339 10.2966 10.0171C10.6318 9.67411 10.9603 9.33807 11.2886 9.00182L11.3008 9.01156C10.7924 9.77517 10.284 10.5387 9.77559 11.302L9.79585 11.3251L10.5029 10.8715C10.8807 11.9431 11.255 13.0051 11.635 14.0826L8.29112 14.441C8.3886 14.3177 8.4723 14.2108 8.55701 14.1047C8.63078 14.0125 8.71022 13.9242 8.77689 13.8271C8.78966 13.8074 8.79829 13.7852 8.80226 13.762C8.80623 13.7389 8.80546 13.7151 8.79999 13.6922C8.47128 12.7593 8.13987 11.8275 7.80576 10.8966C7.79036 10.8532 7.77252 10.8108 7.7484 10.7488C7.70909 10.7922 7.68214 10.8199 7.65741 10.8502C6.84678 11.822 6.03615 12.7941 5.22552 13.7665C4.93815 14.1112 4.65383 14.4588 4.36342 14.8008C4.32375 14.8449 4.27007 14.8741 4.21142 14.8833C3.19185 14.9975 2.17168 15.1064 1.1513 15.2175C0.830896 15.2526 0.508468 15.2891 0.186648 15.3246C0.124679 15.3346 0.0613926 15.333 0 15.3199C0.0970729 15.2445 0.193741 15.1686 0.291219 15.0936C0.521235 14.9168 0.761181 14.7511 0.978633 14.5598C1.13184 14.4252 1.25729 14.2581 1.39043 14.1013C1.77021 13.6535 2.14027 13.1978 2.52957 12.7577C2.66413 12.6052 2.83741 12.486 2.99811 12.358C3.86116 11.6701 4.72509 10.9833 5.5899 10.2975C5.61907 10.2763 5.6397 10.2454 5.64806 10.2103L1.47454 12.7385L1.46339 12.7275C1.48062 12.7121 1.49683 12.6949 1.51547 12.6813C2.42176 12.0228 3.33169 11.3687 4.23108 10.7017C4.37943 10.5918 4.48866 10.4273 4.61066 10.2835C5.0869 9.72258 5.56193 9.16055 6.03575 8.59743C6.25867 8.33379 6.48159 8.07299 6.70026 7.8065C6.71376 7.78759 6.72305 7.766 6.72749 7.74319C6.73193 7.72038 6.73142 7.69687 6.726 7.67428C6.4516 6.87605 6.17254 6.07964 5.8951 5.28263C5.61361 4.47669 5.33475 3.66974 5.04982 2.86461C5.02955 2.81006 4.97929 2.75916 4.93025 2.72427C4.63903 2.5166 4.34417 2.31421 4.05072 2.10978C4.03532 2.09903 4.02153 2.08605 3.99154 2.06131C4.22257 2.0315 4.43496 2.00331 4.64754 1.97715C5.52201 1.86987 6.39648 1.76441 7.27034 1.65408C7.36072 1.64273 7.40308 1.66524 7.43429 1.75123C7.54392 2.05259 7.66086 2.35132 7.77556 2.65086C7.78488 2.6754 7.79866 2.69811 7.81974 2.74029L8.50878 2.08524L8.52195 2.0966L7.44604 3.57544L7.46631 3.59774L7.96849 3.31727C8.21067 4.04371 8.44919 4.75879 8.68772 5.47367L8.72501 5.49658C8.74122 5.46398 8.7602 5.43284 8.78176 5.4035C9.78775 4.23387 10.7943 3.06437 11.8014 1.89501C12.0129 1.64942 12.2219 1.4016 12.4389 1.16127C12.4866 1.11135 12.5493 1.07849 12.6175 1.06778C13.6186 0.943059 14.6209 0.822797 15.6227 0.702535C15.813 0.67901 16.0035 0.657919 16.2231 0.632568Z" fill="#38C948"/>
<path d="M3.37931 2.36562C1.94774 3.54735 1.03781 5.02639 0.746791 6.85384C0.457261 8.67487 0.816303 10.3679 1.82392 11.9328L1.56249 12.132C1.46967 11.9781 1.37523 11.8316 1.29052 11.6799C0.783878 10.772 0.471988 9.80056 0.370862 8.76505C0.282503 7.85954 0.344516 6.96457 0.580004 6.08319C0.989643 4.5496 1.79953 3.27025 3.00966 2.24516C3.07046 2.19283 3.11444 2.18979 3.17564 2.23522C3.23684 2.28065 3.30534 2.31918 3.37931 2.36562Z" fill="#38C948"/>
<path d="M14.3733 4.3429C16.3038 7.85868 15.1107 11.9857 12.3078 14.0074C12.2648 13.9194 12.219 13.8345 12.1836 13.7452C12.1761 13.7264 12.2012 13.6844 12.2221 13.6661C12.4762 13.4351 12.7455 13.22 12.9855 12.9742C13.4256 12.5215 13.8022 12.0111 14.105 11.457C14.5596 10.6416 14.8458 9.74301 14.9464 8.81469C14.9942 8.34196 15.0086 7.87085 14.9667 7.39893C14.945 7.15739 14.903 6.91768 14.868 6.67756C14.8035 6.23423 14.6704 5.80916 14.505 5.39524C14.398 5.12693 14.2618 4.86957 14.137 4.60857C14.1155 4.56395 14.1019 4.53191 14.1544 4.49865C14.2265 4.4518 14.2961 4.39826 14.3733 4.3429Z" fill="#38C948"/>
<path d="M4.44122 1.30573C5.33082 0.855772 6.3013 0.588243 7.29565 0.518856C8.9692 0.398392 10.4662 0.872949 11.4412 1.4341C11.377 1.50874 11.3196 1.5858 11.2491 1.6511C11.2315 1.66773 11.1745 1.65556 11.1423 1.64117C10.9088 1.53652 10.6815 1.41687 10.4437 1.32297C9.78488 1.05991 9.08915 0.90098 8.38149 0.851858C7.76582 0.811297 7.15237 0.822654 6.54785 0.942713C6.16564 1.01876 5.79315 1.14308 5.4156 1.24246C5.31245 1.26963 5.20686 1.29823 5.10128 1.3033C4.89072 1.31242 4.67935 1.30573 4.44122 1.30573Z" fill="#38C948"/>
<path d="M4.97827 14.9501C5.0415 14.8609 5.0875 14.7856 5.14506 14.7207C5.1631 14.7004 5.217 14.6927 5.24639 14.7031C5.68251 14.8576 6.12369 14.989 6.58109 15.0681C7.0926 15.1568 7.60694 15.1821 8.12372 15.1653C8.74155 15.1457 9.35388 15.0424 9.94399 14.8582C10.0437 14.8274 10.1422 14.784 10.2443 14.772C10.5641 14.7339 10.8851 14.708 11.2065 14.6909C9.1747 15.6786 7.10516 15.7585 4.97827 14.9501Z" fill="#38C948"/>
</svg>
