<svg width="20" height="20" viewBox="0 0 20 20" fill="none" xmlns="http://www.w3.org/2000/svg">
<path d="M16.5999 6.40021C17.3614 6.4004 18.0943 6.69013 18.65 7.21067C19.2058 7.73121 19.5428 8.4436 19.5927 9.20341L19.5999 9.40021V16.6002C19.5998 17.3617 19.31 18.0946 18.7895 18.6503C18.269 19.2061 17.5566 19.5431 16.7967 19.593L16.5999 19.6002H9.39995C8.63829 19.6003 7.9051 19.3107 7.34909 18.7902C6.79309 18.2696 6.45591 17.557 6.40595 16.797L6.39995 16.6002V9.40021C6.39983 8.63855 6.68943 7.90536 7.21 7.34936C7.73057 6.79336 8.44313 6.45618 9.20315 6.40621L9.39995 6.40021H16.5999ZM16.5999 7.60021H9.39995C8.95249 7.60024 8.52108 7.76692 8.18985 8.06776C7.85861 8.3686 7.6513 8.78202 7.60835 9.22741L7.59995 9.40021V16.6002C7.59997 17.0477 7.76665 17.4791 8.06749 17.8103C8.36833 18.1416 8.78176 18.3489 9.22715 18.3918L9.39995 18.4002H16.5999C17.0474 18.4002 17.4788 18.2335 17.8101 17.9327C18.1413 17.6318 18.3486 17.2184 18.3916 16.773L18.4 16.6002V9.40021C18.3999 8.95275 18.2332 8.52135 17.9324 8.19011C17.6316 7.85888 17.2181 7.65157 16.7727 7.60861L16.5999 7.60021ZM12.9999 8.80021C13.1404 8.80017 13.2764 8.84938 13.3843 8.93928C13.4921 9.02918 13.5651 9.15408 13.5903 9.29221L13.5999 9.40021L13.5987 12.4002H16.5999C16.7499 12.3999 16.8945 12.4558 17.0053 12.5568C17.1161 12.6578 17.1851 12.7967 17.1986 12.946C17.2121 13.0953 17.1693 13.2443 17.0785 13.3636C16.9877 13.4829 16.8555 13.5639 16.7079 13.5906L16.5999 13.6002H13.5999V16.6002C13.6002 16.7501 13.5444 16.8948 13.4433 17.0056C13.3423 17.1164 13.2035 17.1853 13.0542 17.1989C12.9048 17.2124 12.7559 17.1696 12.6366 17.0788C12.5172 16.9879 12.4363 16.8558 12.4095 16.7082L12.3999 16.6002L12.3987 13.6002H9.39995C9.25001 13.6005 9.10541 13.5446 8.99461 13.4436C8.88381 13.3426 8.81485 13.2038 8.8013 13.0544C8.78775 12.9051 8.8306 12.7561 8.92141 12.6368C9.01222 12.5175 9.14441 12.4365 9.29195 12.4098L9.39995 12.4002H12.3999V9.40021C12.3999 9.24109 12.4632 9.08847 12.5757 8.97595C12.6882 8.86343 12.8408 8.80021 12.9999 8.80021ZM13.1943 2.43421L13.2519 2.62381L13.9419 5.20021H12.6987L12.0927 2.93341C11.9769 2.5013 11.7042 2.12781 11.328 1.88578C10.9517 1.64374 10.4988 1.55049 10.0575 1.62421L9.88835 1.66021L2.93195 3.52621C2.50053 3.6423 2.1277 3.91468 1.88596 4.29039C1.64421 4.66609 1.55082 5.11828 1.62395 5.55901L1.65995 5.72941L3.52475 12.6834C3.62446 13.0557 3.84103 13.3862 4.14259 13.6261C4.44415 13.8661 4.81478 14.003 5.19995 14.0166V15.2166C4.58711 15.2034 3.993 15.0029 3.49746 14.6421C3.00193 14.2812 2.6287 13.7774 2.42795 13.1982L2.36555 12.9942L0.501948 6.04021C0.304521 5.30457 0.394306 4.52137 0.75309 3.84948C1.11187 3.1776 1.71279 2.66734 2.43395 2.42221L2.62355 2.36581L9.57755 0.502214C10.2806 0.313749 11.0282 0.387315 11.681 0.709204C12.3339 1.03109 12.8474 1.57935 13.1259 2.25181L13.1943 2.43421Z" fill="#AFFF26"/>
</svg>
