<svg width="32" height="32" viewBox="0 0 32 32" fill="none" xmlns="http://www.w3.org/2000/svg">
<g clip-path="url(#clip0_4_13)">
<path d="M16 32C24.8366 32 32 24.8366 32 16C32 7.16344 24.8366 0 16 0C7.16344 0 0 7.16344 0 16C0 24.8366 7.16344 32 16 32Z" fill="#D750B2"/>
<g style="mix-blend-mode:multiply" opacity="0.1">
<path fill-rule="evenodd" clip-rule="evenodd" d="M24.3428 3.13232C28.9191 8.87177 28.5505 17.2573 23.2373 22.5706C17.528 28.2799 8.27148 28.2799 2.56223 22.5706C2.2825 22.2909 2.01648 22.0026 1.76416 21.7067C4.02814 27.3486 9.54881 31.3326 16 31.3326C24.4683 31.3326 31.3332 24.4677 31.3332 15.9994C31.3332 10.6078 28.5504 5.8661 24.3428 3.13232Z" fill="black"/>
</g>
<g style="mix-blend-mode:multiply" opacity="0.1">
<path fill-rule="evenodd" clip-rule="evenodd" d="M25.7713 4.18262C30.6308 10.2119 30.2607 19.061 24.6609 24.6608C19.0615 30.2602 10.2132 30.6307 4.18396 25.7722C6.99643 29.1689 11.2455 31.3329 16 31.3329C24.4683 31.3329 31.3332 24.468 31.3332 15.9997C31.3332 11.2446 29.1687 6.99508 25.7713 4.18262Z" fill="black"/>
</g>
<g style="mix-blend-mode:soft-light">
<path fill-rule="evenodd" clip-rule="evenodd" d="M3.48971 24.8677C0.151066 18.7651 0.974994 11.0636 6.01933 6.01927C11.0639 0.974682 18.7659 0.15093 24.8687 3.49016C22.365 1.71201 19.3046 0.666603 16 0.666603C7.53166 0.666603 0.666748 7.53152 0.666748 15.9998C0.666748 19.3041 1.71192 22.3642 3.48971 24.8677Z" fill="white"/>
</g>
<g style="mix-blend-mode:soft-light">
<path fill-rule="evenodd" clip-rule="evenodd" d="M2.10074 9.5143C3.7727 5.93677 6.78527 3.11129 10.4921 1.68422C10.546 1.73235 10.5987 1.78219 10.6502 1.83374C12.4838 3.66728 10.9119 5.7442 8.66144 7.99465C6.41099 10.2451 4.33416 11.8169 2.50063 9.98335C2.35337 9.83609 2.22012 9.6793 2.10074 9.5143Z" fill="white"/>
</g>
<path d="M14.4629 14.5732H15.7725C16.2354 14.5732 16.6162 14.4941 16.915 14.3359C17.2197 14.1719 17.4453 13.9492 17.5918 13.668C17.7441 13.3809 17.8203 13.0498 17.8203 12.6748C17.8203 12.3057 17.7529 11.9863 17.6182 11.7168C17.4834 11.4414 17.2783 11.2305 17.0029 11.084C16.7334 10.9316 16.3877 10.8555 15.9658 10.8555C15.626 10.8555 15.3125 10.9229 15.0254 11.0576C14.7441 11.1924 14.5186 11.3857 14.3486 11.6377C14.1846 11.8838 14.1025 12.1797 14.1025 12.5254H11.7734C11.7734 11.834 11.9551 11.2275 12.3184 10.7061C12.6875 10.1787 13.1855 9.76562 13.8125 9.4668C14.4395 9.16797 15.1396 9.01855 15.9131 9.01855C16.7568 9.01855 17.4951 9.15918 18.1279 9.44043C18.7666 9.71582 19.2617 10.123 19.6133 10.6621C19.9707 11.2012 20.1494 11.8691 20.1494 12.666C20.1494 13.0469 20.0586 13.4277 19.877 13.8086C19.7012 14.1836 19.4404 14.5234 19.0947 14.8281C18.7549 15.127 18.3359 15.3701 17.8379 15.5576C17.3457 15.7393 16.7803 15.8301 16.1416 15.8301H14.4629V14.5732ZM14.4629 16.3662V15.127H16.1416C16.8623 15.127 17.4863 15.2119 18.0137 15.3818C18.5469 15.5459 18.9863 15.7803 19.332 16.085C19.6777 16.3838 19.9326 16.7324 20.0967 17.1309C20.2666 17.5293 20.3516 17.957 20.3516 18.4141C20.3516 19.0117 20.2402 19.5449 20.0176 20.0137C19.7949 20.4766 19.4814 20.8691 19.0771 21.1914C18.6787 21.5137 18.21 21.7598 17.6709 21.9297C17.1318 22.0938 16.5488 22.1758 15.9219 22.1758C15.377 22.1758 14.8467 22.1025 14.3311 21.9561C13.8213 21.8037 13.3613 21.5781 12.9512 21.2793C12.541 20.9746 12.2158 20.5938 11.9756 20.1367C11.7354 19.6738 11.6152 19.1377 11.6152 18.5283H13.9443C13.9443 18.8799 14.0293 19.1934 14.1992 19.4688C14.375 19.7441 14.6152 19.9609 14.9199 20.1191C15.2305 20.2715 15.5791 20.3477 15.9658 20.3477C16.3936 20.3477 16.7598 20.2715 17.0645 20.1191C17.375 19.9609 17.6123 19.7383 17.7764 19.4512C17.9404 19.1582 18.0225 18.8096 18.0225 18.4053C18.0225 17.9248 17.9316 17.5352 17.75 17.2363C17.5684 16.9375 17.3076 16.7178 16.9678 16.5771C16.6338 16.4365 16.2354 16.3662 15.7725 16.3662H14.4629Z" fill="black"/>
<path d="M14.4629 14.5732V14.3732C14.3524 14.3732 14.2629 14.4628 14.2629 14.5732H14.4629ZM16.915 14.3359L17.0086 14.5127L17.0099 14.512L16.915 14.3359ZM17.5918 13.668L17.4151 13.5742L17.4144 13.5756L17.5918 13.668ZM17.6182 11.7168L17.4385 11.8047L17.4393 11.8062L17.6182 11.7168ZM17.0029 11.084L16.9045 11.2582L16.909 11.2606L17.0029 11.084ZM15.0254 11.0576L14.9404 10.8766L14.939 10.8773L15.0254 11.0576ZM14.3486 11.6377L14.1828 11.5259L14.1822 11.5268L14.3486 11.6377ZM14.1025 12.5254V12.7254C14.213 12.7254 14.3025 12.6358 14.3025 12.5254H14.1025ZM11.7734 12.5254H11.5734C11.5734 12.6358 11.663 12.7254 11.7734 12.7254V12.5254ZM12.3184 10.7061L12.1545 10.5914L12.1543 10.5917L12.3184 10.7061ZM18.1279 9.44043L18.0467 9.6232L18.0487 9.62408L18.1279 9.44043ZM19.6133 10.6621L19.4458 10.7714L19.4466 10.7726L19.6133 10.6621ZM19.877 13.8086L19.6964 13.7225L19.6959 13.7237L19.877 13.8086ZM19.0947 14.8281L19.2268 14.9783L19.227 14.9782L19.0947 14.8281ZM17.8379 15.5576L17.9071 15.7453L17.9084 15.7448L17.8379 15.5576ZM14.4629 15.8301H14.2629C14.2629 15.9405 14.3524 16.0301 14.4629 16.0301V15.8301ZM14.4629 16.3662H14.2629C14.2629 16.4767 14.3524 16.5662 14.4629 16.5662V16.3662ZM14.4629 15.127V14.927C14.3524 14.927 14.2629 15.0165 14.2629 15.127H14.4629ZM18.0137 15.3818L17.9523 15.5722L17.9549 15.573L18.0137 15.3818ZM19.332 16.085L19.1998 16.235L19.2012 16.2363L19.332 16.085ZM20.0967 17.1309L19.9117 17.207L19.9127 17.2093L20.0967 17.1309ZM20.0176 20.0137L20.1978 20.1004L20.1982 20.0995L20.0176 20.0137ZM19.0771 21.1914L18.9525 21.035L18.9514 21.0359L19.0771 21.1914ZM17.6709 21.9297L17.7291 22.121L17.731 22.1204L17.6709 21.9297ZM14.3311 21.9561L14.2738 22.1477L14.2764 22.1484L14.3311 21.9561ZM12.9512 21.2793L12.8319 21.4399L12.8334 21.4409L12.9512 21.2793ZM11.9756 20.1367L11.7981 20.2288L11.7986 20.2298L11.9756 20.1367ZM11.6152 18.5283V18.3283C11.5048 18.3283 11.4152 18.4179 11.4152 18.5283H11.6152ZM13.9443 18.5283H14.1443C14.1443 18.4179 14.0548 18.3283 13.9443 18.3283V18.5283ZM14.1992 19.4688L14.029 19.5738L14.0306 19.5764L14.1992 19.4688ZM14.9199 20.1191L14.8277 20.2967L14.8318 20.2987L14.9199 20.1191ZM17.0645 20.1191L17.1539 20.298L17.1552 20.2973L17.0645 20.1191ZM17.7764 19.4512L17.95 19.5504L17.9509 19.5489L17.7764 19.4512ZM16.9678 16.5771L16.8902 16.7615L16.8913 16.762L16.9678 16.5771ZM14.4629 14.7732H15.7725V14.3732H14.4629V14.7732ZM15.7725 14.7732C16.2565 14.7732 16.6723 14.6907 17.0086 14.5127L16.8215 14.1592C16.5601 14.2975 16.2142 14.3732 15.7725 14.3732V14.7732ZM17.0099 14.512C17.3465 14.3308 17.6025 14.0804 17.7692 13.7604L17.4144 13.5756C17.2881 13.818 17.093 14.013 16.8202 14.1598L17.0099 14.512ZM17.7685 13.7617C17.9383 13.4416 18.0203 13.0774 18.0203 12.6748H17.6203C17.6203 13.0222 17.5499 13.3201 17.4151 13.5742L17.7685 13.7617ZM18.0203 12.6748C18.0203 12.2815 17.9485 11.9302 17.797 11.6274L17.4393 11.8062C17.5574 12.0424 17.6203 12.3298 17.6203 12.6748H18.0203ZM17.7978 11.6289C17.6442 11.3149 17.4087 11.0733 17.0969 10.9074L16.909 11.2606C17.1479 11.3876 17.3226 11.5679 17.4385 11.8047L17.7978 11.6289ZM17.1013 10.9099C16.7928 10.7355 16.4102 10.6555 15.9658 10.6555V11.0555C16.3652 11.0555 16.674 11.1278 16.9045 11.2581L17.1013 10.9099ZM15.9658 10.6555C15.5987 10.6555 15.256 10.7284 14.9404 10.8766L15.1104 11.2387C15.369 11.1173 15.6532 11.0555 15.9658 11.0555V10.6555ZM14.939 10.8773C14.6265 11.027 14.3732 11.2436 14.1828 11.5259L14.5144 11.7495C14.6639 11.5279 14.8618 11.3578 15.1118 11.238L14.939 10.8773ZM14.1822 11.5268C13.9928 11.811 13.9025 12.147 13.9025 12.5254H14.3025C14.3025 12.2124 14.3764 11.9566 14.515 11.7486L14.1822 11.5268ZM14.1025 12.3254H11.7734V12.7254H14.1025V12.3254ZM11.9734 12.5254C11.9734 11.8711 12.1446 11.3053 12.4825 10.8204L12.1543 10.5917C11.7655 11.1497 11.5734 11.7969 11.5734 12.5254H11.9734ZM12.4822 10.8207C12.83 10.3239 13.3002 9.93251 13.8986 9.64734L13.7264 9.28626C13.0709 9.59874 12.545 10.0335 12.1545 10.5914L12.4822 10.8207ZM13.8986 9.64734C14.4957 9.36271 15.166 9.21855 15.9131 9.21855V8.81855C15.1133 8.81855 14.3832 8.97323 13.7264 9.28626L13.8986 9.64734ZM15.9131 9.21855C16.7348 9.21855 17.4444 9.35551 18.0467 9.62319L18.2092 9.25767C17.5458 8.96285 16.7788 8.81855 15.9131 8.81855V9.21855ZM18.0487 9.62408C18.6543 9.88522 19.1174 10.2679 19.4458 10.7714L19.7808 10.5529C19.406 9.97817 18.8789 9.54643 18.2071 9.25678L18.0487 9.62408ZM19.4466 10.7726C19.7777 11.272 19.9494 11.8993 19.9494 12.666H20.3494C20.3494 11.839 20.1637 11.1303 19.78 10.5516L19.4466 10.7726ZM19.9494 12.666C19.9494 13.014 19.8666 13.3656 19.6964 13.7225L20.0575 13.8947C20.2505 13.4899 20.3494 13.0798 20.3494 12.666H19.9494ZM19.6959 13.7237C19.533 14.0712 19.2899 14.3895 18.9625 14.6781L19.227 14.9782C19.5909 14.6574 19.8694 14.296 20.058 13.8935L19.6959 13.7237ZM18.9627 14.6779C18.6438 14.9583 18.2468 15.19 17.7674 15.3704L17.9084 15.7448C18.4251 15.5503 18.8659 15.2956 19.2268 14.9783L18.9627 14.6779ZM17.7686 15.37C17.3029 15.5419 16.7616 15.6301 16.1416 15.6301V16.0301C16.7989 16.0301 17.3885 15.9366 17.9071 15.7452L17.7686 15.37ZM16.1416 15.6301H14.4629V16.0301H16.1416V15.6301ZM14.6629 15.8301V14.5732H14.2629V15.8301H14.6629ZM14.6629 16.3662V15.127H14.2629V16.3662H14.6629ZM14.4629 15.327H16.1416V14.927H14.4629V15.327ZM16.1416 15.327C16.8474 15.327 17.4497 15.4103 17.9523 15.5722L18.075 15.1915C17.5229 15.0136 16.8772 14.927 16.1416 14.927V15.327ZM17.9549 15.573C18.4665 15.7304 18.8794 15.9526 19.1998 16.235L19.4643 15.9349C19.0933 15.608 18.6272 15.3614 18.0725 15.1907L17.9549 15.573ZM19.2012 16.2363C19.5247 16.5159 19.7603 16.8393 19.9117 17.207L20.2816 17.0547C20.1049 16.6256 19.8307 16.2517 19.4628 15.9337L19.2012 16.2363ZM19.9127 17.2093C20.0715 17.5816 20.1516 17.9825 20.1516 18.4141H20.5516C20.5516 17.9316 20.4617 17.477 20.2806 17.0524L19.9127 17.2093ZM20.1516 18.4141C20.1516 18.9865 20.045 19.4897 19.8369 19.9279L20.1982 20.0995C20.4354 19.6001 20.5516 19.0369 20.5516 18.4141H20.1516ZM19.8373 19.927C19.6278 20.3626 19.3334 20.7314 18.9525 21.035L19.2018 21.3478C19.6295 21.0069 19.962 20.5906 20.1978 20.1004L19.8373 19.927ZM18.9514 21.0359C18.5743 21.3409 18.1284 21.5758 17.6108 21.7389L17.731 22.1204C18.2915 21.9438 18.7831 21.6865 19.2029 21.3469L18.9514 21.0359ZM17.6127 21.7384C17.0945 21.8961 16.5313 21.9758 15.9219 21.9758V22.3758C16.5664 22.3758 17.1692 22.2914 17.7291 22.121L17.6127 21.7384ZM15.9219 21.9758C15.3951 21.9758 14.8833 21.905 14.3857 21.7637L14.2764 22.1484C14.8101 22.3001 15.3588 22.3758 15.9219 22.3758V21.9758ZM14.3883 21.7644C13.8992 21.6183 13.4599 21.4025 13.0689 21.1176L12.8334 21.4409C13.2628 21.7538 13.7434 21.9892 14.2738 22.1477L14.3883 21.7644ZM13.0704 21.1187C12.6846 20.8321 12.3791 20.4744 12.1526 20.0437L11.7986 20.2298C12.0526 20.7131 12.3974 21.1171 12.8319 21.4398L13.0704 21.1187ZM12.1531 20.0446C11.9299 19.6146 11.8152 19.111 11.8152 18.5283H11.4152C11.4152 19.1644 11.5408 19.7331 11.7981 20.2288L12.1531 20.0446ZM11.6152 18.7283H13.9443V18.3283H11.6152V18.7283ZM13.7443 18.5283C13.7443 18.9137 13.8379 19.2641 14.029 19.5738L14.3694 19.3637C14.2207 19.1226 14.1443 18.8461 14.1443 18.5283H13.7443ZM14.0306 19.5764C14.2263 19.8829 14.4936 20.1231 14.8278 20.2966L15.0121 19.9416C14.7369 19.7988 14.5237 19.6054 14.3678 19.3611L14.0306 19.5764ZM14.8318 20.2987C15.1729 20.466 15.5522 20.5477 15.9658 20.5477V20.1477C15.606 20.1477 15.288 20.077 15.008 19.9396L14.8318 20.2987ZM15.9658 20.5477C16.4169 20.5477 16.8153 20.4673 17.1539 20.298L16.975 19.9403C16.7043 20.0756 16.3702 20.1477 15.9658 20.1477V20.5477ZM17.1552 20.2973C17.4985 20.1225 17.7655 19.8732 17.95 19.5504L17.6027 19.3519C17.4591 19.6033 17.2515 19.7994 16.9737 19.9409L17.1552 20.2973ZM17.9509 19.5489C18.1348 19.2205 18.2225 18.8368 18.2225 18.4053H17.8225C17.8225 18.7823 17.7461 19.0959 17.6019 19.3535L17.9509 19.5489ZM18.2225 18.4053C18.2225 17.9013 18.1274 17.4722 17.9209 17.1324L17.5791 17.3402C17.7359 17.5981 17.8225 17.9483 17.8225 18.4053H18.2225ZM17.9209 17.1324C17.716 16.7953 17.4212 16.5483 17.0442 16.3923L16.8913 16.762C17.194 16.8872 17.4207 17.0797 17.5791 17.3402L17.9209 17.1324ZM17.0454 16.3928C16.681 16.2394 16.2549 16.1662 15.7725 16.1662V16.5662C16.2158 16.5662 16.5865 16.6336 16.8902 16.7615L17.0454 16.3928ZM15.7725 16.1662H14.4629V16.5662H15.7725V16.1662Z" fill="white"/>
</g>
<defs>
<clipPath id="clip0_4_13">
<rect width="32" height="32" fill="white"/>
</clipPath>
</defs>
</svg>
