<svg width="32" height="32" viewBox="0 0 32 32" fill="none" xmlns="http://www.w3.org/2000/svg">
<g clip-path="url(#clip0_4_13)">
<path d="M16 32C24.8366 32 32 24.8366 32 16C32 7.16344 24.8366 0 16 0C7.16344 0 0 7.16344 0 16C0 24.8366 7.16344 32 16 32Z" fill="#31D0AA"/>
<g style="mix-blend-mode:multiply" opacity="0.1">
<path fill-rule="evenodd" clip-rule="evenodd" d="M24.3428 3.13232C28.9191 8.87177 28.5505 17.2573 23.2373 22.5706C17.528 28.2799 8.27148 28.2799 2.56223 22.5706C2.2825 22.2909 2.01648 22.0026 1.76416 21.7067C4.02814 27.3486 9.54881 31.3326 16 31.3326C24.4683 31.3326 31.3332 24.4677 31.3332 15.9994C31.3332 10.6078 28.5504 5.8661 24.3428 3.13232Z" fill="black"/>
</g>
<g style="mix-blend-mode:multiply" opacity="0.1">
<path fill-rule="evenodd" clip-rule="evenodd" d="M25.7713 4.18262C30.6308 10.2119 30.2607 19.061 24.6609 24.6608C19.0615 30.2602 10.2132 30.6307 4.18396 25.7722C6.99643 29.1689 11.2455 31.3329 16 31.3329C24.4683 31.3329 31.3332 24.468 31.3332 15.9997C31.3332 11.2446 29.1687 6.99508 25.7713 4.18262Z" fill="black"/>
</g>
<g style="mix-blend-mode:soft-light">
<path fill-rule="evenodd" clip-rule="evenodd" d="M3.48971 24.8677C0.151066 18.7651 0.974994 11.0636 6.01933 6.01927C11.0639 0.974682 18.7659 0.15093 24.8687 3.49016C22.365 1.71201 19.3046 0.666603 16 0.666603C7.53166 0.666603 0.666748 7.53152 0.666748 15.9998C0.666748 19.3041 1.71192 22.3642 3.48971 24.8677Z" fill="white"/>
</g>
<g style="mix-blend-mode:soft-light">
<path fill-rule="evenodd" clip-rule="evenodd" d="M2.10074 9.5143C3.7727 5.93677 6.78527 3.11129 10.4921 1.68422C10.546 1.73235 10.5987 1.78219 10.6502 1.83374C12.4838 3.66728 10.9119 5.7442 8.66144 7.99465C6.41099 10.2451 4.33416 11.8169 2.50063 9.98335C2.35337 9.83609 2.22012 9.6793 2.10074 9.5143Z" fill="white"/>
</g>
<path d="M14.2256 16.1113L12.3711 15.6631L13.083 9.20312H20.123V11.1279H15.0078L14.6738 14.1162C14.8555 14.0049 15.1191 13.8936 15.4648 13.7822C15.8164 13.665 16.2119 13.6064 16.6514 13.6064C17.2607 13.6064 17.8057 13.7061 18.2861 13.9053C18.7666 14.0986 19.1738 14.3799 19.5078 14.749C19.8477 15.1182 20.1025 15.5693 20.2725 16.1025C20.4482 16.6299 20.5361 17.2275 20.5361 17.8955C20.5361 18.4814 20.4482 19.0322 20.2725 19.5479C20.1025 20.0576 19.8418 20.5117 19.4902 20.9102C19.1387 21.3027 18.6963 21.6133 18.1631 21.8418C17.6299 22.0645 17.0029 22.1758 16.2822 22.1758C15.7373 22.1758 15.2129 22.0967 14.709 21.9385C14.2109 21.7744 13.7627 21.5371 13.3643 21.2266C12.9658 20.9102 12.6465 20.5234 12.4062 20.0664C12.1719 19.6094 12.043 19.085 12.0195 18.4932H14.3135C14.3545 18.8857 14.46 19.2197 14.6299 19.4951C14.7998 19.7705 15.0225 19.9814 15.2979 20.1279C15.5791 20.2744 15.9043 20.3477 16.2734 20.3477C16.6074 20.3477 16.8945 20.2861 17.1348 20.1631C17.3809 20.0342 17.583 19.8555 17.7412 19.627C17.8994 19.3984 18.0166 19.1289 18.0928 18.8184C18.1689 18.5078 18.207 18.168 18.207 17.7988C18.207 17.4414 18.1631 17.1162 18.0752 16.8232C17.9873 16.5244 17.8525 16.2666 17.6709 16.0498C17.4893 15.833 17.2607 15.666 16.9854 15.5488C16.7158 15.4316 16.3994 15.373 16.0361 15.373C15.5498 15.373 15.1748 15.4463 14.9111 15.5928C14.6533 15.7393 14.4248 15.9121 14.2256 16.1113Z" fill="black"/>
<path d="M14.2256 16.1113L14.1786 16.3057C14.2463 16.3221 14.3177 16.302 14.367 16.2527L14.2256 16.1113ZM12.3711 15.6631L12.1723 15.6412C12.1613 15.7412 12.2263 15.8338 12.3241 15.8575L12.3711 15.6631ZM13.083 9.20312V9.00312C12.981 9.00312 12.8954 9.07985 12.8842 9.18122L13.083 9.20312ZM20.123 9.20312H20.323C20.323 9.09267 20.2335 9.00312 20.123 9.00312V9.20312ZM20.123 11.1279V11.3279C20.2335 11.3279 20.323 11.2384 20.323 11.1279H20.123ZM15.0078 11.1279V10.9279C14.906 10.9279 14.8204 11.0045 14.8091 11.1057L15.0078 11.1279ZM14.6738 14.1162L14.4751 14.094C14.4666 14.1699 14.5021 14.244 14.5666 14.285C14.631 14.326 14.7132 14.3267 14.7783 14.2867L14.6738 14.1162ZM15.4648 13.7822L15.5262 13.9726L15.5281 13.972L15.4648 13.7822ZM18.2861 13.9053L18.2095 14.09L18.2115 14.0908L18.2861 13.9053ZM19.5078 14.749L19.3595 14.8832L19.3607 14.8845L19.5078 14.749ZM20.2725 16.1025L20.0819 16.1633L20.0827 16.1658L20.2725 16.1025ZM20.2725 19.5479L20.0832 19.4833L20.0827 19.4846L20.2725 19.5479ZM19.4902 20.9102L19.6392 21.0436L19.6402 21.0425L19.4902 20.9102ZM18.1631 21.8418L18.2402 22.0264L18.2419 22.0256L18.1631 21.8418ZM14.709 21.9385L14.6464 22.1285L14.6491 22.1293L14.709 21.9385ZM13.3643 21.2266L13.2399 21.3832L13.2413 21.3843L13.3643 21.2266ZM12.4062 20.0664L12.2283 20.1577L12.2292 20.1595L12.4062 20.0664ZM12.0195 18.4932V18.2932C11.9651 18.2932 11.913 18.3153 11.8753 18.3546C11.8376 18.3938 11.8175 18.4467 11.8197 18.5011L12.0195 18.4932ZM14.3135 18.4932L14.5124 18.4724C14.5018 18.3705 14.4159 18.2932 14.3135 18.2932V18.4932ZM15.2979 20.1279L15.2039 20.3045L15.2055 20.3053L15.2979 20.1279ZM17.1348 20.1631L17.2259 20.3411L17.2276 20.3403L17.1348 20.1631ZM18.0752 16.8232L17.8833 16.8797L17.8836 16.8807L18.0752 16.8232ZM16.9854 15.5488L16.9056 15.7322L16.907 15.7329L16.9854 15.5488ZM14.9111 15.5928L14.814 15.4179L14.8123 15.4189L14.9111 15.5928ZM14.2726 15.9169L12.4181 15.4687L12.3241 15.8575L14.1786 16.3057L14.2726 15.9169ZM12.5699 15.685L13.2818 9.22503L12.8842 9.18122L12.1723 15.6412L12.5699 15.685ZM13.083 9.40313H20.123V9.00312H13.083V9.40313ZM19.923 9.20312V11.1279H20.323V9.20312H19.923ZM20.123 10.9279H15.0078V11.3279H20.123V10.9279ZM14.8091 11.1057L14.4751 14.094L14.8726 14.1384L15.2066 11.1501L14.8091 11.1057ZM14.7783 14.2867C14.9402 14.1875 15.1866 14.082 15.5262 13.9726L15.4035 13.5919C15.0517 13.7052 14.7707 13.8222 14.5693 13.9457L14.7783 14.2867ZM15.5281 13.972C15.8559 13.8627 16.2295 13.8064 16.6514 13.8064V13.4064C16.1943 13.4064 15.7769 13.4674 15.4016 13.5925L15.5281 13.972ZM16.6514 13.8064C17.2389 13.8064 17.7571 13.9024 18.2095 14.09L18.3627 13.7205C17.8542 13.5097 17.2826 13.4064 16.6514 13.4064V13.8064ZM18.2115 14.0908C18.665 14.2733 19.0467 14.5375 19.3595 14.8832L19.6561 14.6148C19.301 14.2223 18.8682 13.9239 18.3608 13.7197L18.2115 14.0908ZM19.3607 14.8845C19.6786 15.2298 19.9198 15.6546 20.0819 16.1633L20.463 16.0418C20.2853 15.4841 20.0167 15.0065 19.655 14.6136L19.3607 14.8845ZM20.0827 16.1658C20.2505 16.6691 20.3361 17.2448 20.3361 17.8955H20.7361C20.7361 17.2102 20.646 16.5907 20.4622 16.0393L20.0827 16.1658ZM20.3361 17.8955C20.3361 18.4612 20.2513 18.99 20.0832 19.4833L20.4618 19.6124C20.6451 19.0745 20.7361 18.5017 20.7361 17.8955H20.3361ZM20.0827 19.4846C19.9212 19.9692 19.6739 20.3998 19.3403 20.7778L19.6402 21.0425C20.0097 20.6237 20.2839 20.146 20.4622 19.6111L20.0827 19.4846ZM19.3412 20.7767C19.011 21.1455 18.5934 21.4398 18.0843 21.658L18.2419 22.0256C18.7991 21.7868 19.2663 21.46 19.6392 21.0436L19.3412 20.7767ZM18.086 21.6572C17.5825 21.8675 16.9828 21.9758 16.2822 21.9758V22.3758C17.0231 22.3758 17.6773 22.2614 18.2402 22.0264L18.086 21.6572ZM16.2822 21.9758C15.757 21.9758 15.2528 21.8996 14.7689 21.7477L14.6491 22.1293C15.173 22.2938 15.7176 22.3758 16.2822 22.3758V21.9758ZM14.7716 21.7485C14.2945 21.5914 13.8668 21.3647 13.4872 21.0688L13.2413 21.3843C13.6586 21.7095 14.1274 21.9575 14.6464 22.1284L14.7716 21.7485ZM13.4886 21.0699C13.1123 20.7711 12.8108 20.4061 12.5833 19.9734L12.2292 20.1595C12.4822 20.6407 12.8193 21.0492 13.2399 21.3832L13.4886 21.0699ZM12.5842 19.9751C12.365 19.5477 12.2418 19.0524 12.2194 18.4852L11.8197 18.5011C11.8441 19.1175 11.9788 19.6711 12.2283 20.1577L12.5842 19.9751ZM12.0195 18.6932H14.3135V18.2932H12.0195V18.6932ZM14.1146 18.5139C14.158 18.93 14.2709 19.2942 14.4597 19.6001L14.8001 19.3901C14.649 19.1453 14.551 18.8415 14.5124 18.4724L14.1146 18.5139ZM14.4597 19.6001C14.6475 19.9045 14.896 20.1407 15.2039 20.3045L15.3918 19.9514C15.1489 19.8222 14.9521 19.6365 14.8001 19.3901L14.4597 19.6001ZM15.2055 20.3053C15.5196 20.4689 15.8774 20.5477 16.2734 20.5477V20.1477C15.9312 20.1477 15.6386 20.0799 15.3902 19.9505L15.2055 20.3053ZM16.2734 20.5477C16.6317 20.5477 16.9516 20.4816 17.2259 20.3411L17.0436 19.9851C16.8375 20.0906 16.5831 20.1477 16.2734 20.1477V20.5477ZM17.2276 20.3403C17.5023 20.1963 17.729 19.9959 17.9056 19.7408L17.5768 19.5131C17.437 19.715 17.2594 19.872 17.042 19.9859L17.2276 20.3403ZM17.9056 19.7408C18.0797 19.4894 18.2059 19.1967 18.287 18.866L17.8985 18.7707C17.8273 19.0611 17.7192 19.3074 17.5768 19.5131L17.9056 19.7408ZM18.287 18.866C18.3675 18.5377 18.407 18.1816 18.407 17.7988H18.007C18.007 18.1543 17.9703 18.4779 17.8985 18.7707L18.287 18.866ZM18.407 17.7988C18.407 17.4251 18.3611 17.0802 18.2668 16.7658L17.8836 16.8807C17.9651 17.1522 18.007 17.4577 18.007 17.7988H18.407ZM18.2671 16.7668C18.1722 16.4443 18.0252 16.1613 17.8242 15.9214L17.5176 16.1782C17.6798 16.3719 17.8024 16.6046 17.8833 16.8797L18.2671 16.7668ZM17.8242 15.9214C17.6211 15.679 17.3663 15.4936 17.0637 15.3648L16.907 15.7329C17.1551 15.8384 17.3574 15.987 17.5176 16.1782L17.8242 15.9214ZM17.0651 15.3654C16.7652 15.235 16.4206 15.173 16.0361 15.173V15.573C16.3783 15.573 16.6664 15.6283 16.9056 15.7322L17.0651 15.3654ZM16.0361 15.173C15.5345 15.173 15.1203 15.2478 14.814 15.4179L15.0083 15.7676C15.2293 15.6448 15.5651 15.573 16.0361 15.573V15.173ZM14.8123 15.4189C14.5397 15.5738 14.2967 15.7574 14.0842 15.9699L14.367 16.2527C14.5529 16.0669 14.7669 15.9048 15.0099 15.7667L14.8123 15.4189Z" fill="white"/>
</g>
<defs>
<clipPath id="clip0_4_13">
<rect width="32" height="32" fill="white"/>
</clipPath>
</defs>
</svg>
