<svg width="32" height="32" viewBox="0 0 32 32" fill="none" xmlns="http://www.w3.org/2000/svg">
<g clip-path="url(#clip0_4_13)">
<path d="M16 32C24.8366 32 32 24.8366 32 16C32 7.16344 24.8366 0 16 0C7.16344 0 0 7.16344 0 16C0 24.8366 7.16344 32 16 32Z" fill="#93D45B"/>
<g style="mix-blend-mode:multiply" opacity="0.1">
<path fill-rule="evenodd" clip-rule="evenodd" d="M24.3428 3.13232C28.9191 8.87177 28.5505 17.2573 23.2373 22.5706C17.528 28.2799 8.27148 28.2799 2.56223 22.5706C2.2825 22.2909 2.01648 22.0026 1.76416 21.7067C4.02814 27.3486 9.54881 31.3326 16 31.3326C24.4683 31.3326 31.3332 24.4677 31.3332 15.9994C31.3332 10.6078 28.5504 5.8661 24.3428 3.13232Z" fill="black"/>
</g>
<g style="mix-blend-mode:multiply" opacity="0.1">
<path fill-rule="evenodd" clip-rule="evenodd" d="M25.7713 4.18262C30.6308 10.2119 30.2607 19.061 24.6609 24.6608C19.0615 30.2602 10.2132 30.6307 4.18396 25.7722C6.99643 29.1689 11.2455 31.3329 16 31.3329C24.4683 31.3329 31.3332 24.468 31.3332 15.9997C31.3332 11.2446 29.1687 6.99508 25.7713 4.18262Z" fill="black"/>
</g>
<g style="mix-blend-mode:soft-light">
<path fill-rule="evenodd" clip-rule="evenodd" d="M3.48971 24.8677C0.151066 18.7651 0.974994 11.0636 6.01933 6.01927C11.0639 0.974682 18.7659 0.15093 24.8687 3.49016C22.365 1.71201 19.3046 0.666603 16 0.666603C7.53166 0.666603 0.666748 7.53152 0.666748 15.9998C0.666748 19.3041 1.71192 22.3642 3.48971 24.8677Z" fill="white"/>
</g>
<g style="mix-blend-mode:soft-light">
<path fill-rule="evenodd" clip-rule="evenodd" d="M2.10074 9.5143C3.7727 5.93677 6.78527 3.11129 10.4921 1.68422C10.546 1.73235 10.5987 1.78219 10.6502 1.83374C12.4838 3.66728 10.9119 5.7442 8.66144 7.99465C6.41099 10.2451 4.33416 11.8169 2.50063 9.98335C2.35337 9.83609 2.22012 9.6793 2.10074 9.5143Z" fill="white"/>
</g>
<path d="M18.3828 9.09766H18.6992V10.9697H18.5498C17.8408 10.9697 17.2168 11.0781 16.6777 11.2949C16.1445 11.5117 15.6992 11.8164 15.3418 12.209C14.9902 12.5957 14.7236 13.0557 14.542 13.5889C14.3604 14.1162 14.2695 14.6934 14.2695 15.3203V17.3945C14.2695 17.8809 14.3193 18.3086 14.4189 18.6777C14.5244 19.041 14.668 19.3486 14.8496 19.6006C15.0371 19.8467 15.2539 20.0312 15.5 20.1543C15.752 20.2773 16.0273 20.3389 16.3262 20.3389C16.625 20.3389 16.8945 20.2773 17.1348 20.1543C17.375 20.0312 17.5801 19.8584 17.75 19.6357C17.9258 19.4072 18.0576 19.1406 18.1455 18.8359C18.2393 18.5312 18.2861 18.1973 18.2861 17.834C18.2861 17.4766 18.2422 17.1455 18.1543 16.8408C18.0664 16.5361 17.9375 16.2695 17.7676 16.041C17.5977 15.8066 17.3867 15.6279 17.1348 15.5049C16.8887 15.376 16.6074 15.3115 16.291 15.3115C15.8809 15.3115 15.5146 15.4082 15.1924 15.6016C14.8701 15.7891 14.6152 16.0352 14.4277 16.3398C14.2402 16.6445 14.1377 16.9668 14.1201 17.3066L13.3379 16.9199C13.3672 16.4219 13.4727 15.9648 13.6543 15.5488C13.8418 15.1328 14.0908 14.7695 14.4014 14.459C14.7178 14.1484 15.0898 13.9082 15.5176 13.7383C15.9512 13.5684 16.4316 13.4834 16.959 13.4834C17.5684 13.4834 18.1016 13.6006 18.5586 13.835C19.0156 14.0635 19.3936 14.377 19.6924 14.7754C19.9971 15.1738 20.2256 15.6338 20.3779 16.1553C20.5303 16.6709 20.6064 17.2158 20.6064 17.79C20.6064 18.4053 20.5068 18.9795 20.3076 19.5127C20.1143 20.0459 19.833 20.5117 19.4639 20.9102C19.0947 21.3086 18.6494 21.6191 18.1279 21.8418C17.6064 22.0645 17.0205 22.1758 16.3701 22.1758C15.6846 22.1758 15.0693 22.0469 14.5244 21.7891C13.9854 21.5312 13.5225 21.1738 13.1357 20.7168C12.749 20.2598 12.4531 19.7266 12.248 19.1172C12.043 18.5078 11.9404 17.8486 11.9404 17.1396V16.208C11.9404 15.2061 12.0781 14.2744 12.3535 13.4131C12.6289 12.5518 13.0361 11.7988 13.5752 11.1543C14.1201 10.5039 14.7939 10 15.5967 9.64258C16.3994 9.2793 17.3281 9.09766 18.3828 9.09766Z" fill="black"/>
<path d="M18.6992 9.09766H18.8992C18.8992 8.9872 18.8097 8.89766 18.6992 8.89766V9.09766ZM18.6992 10.9697V11.1697C18.8097 11.1697 18.8992 11.0802 18.8992 10.9697H18.6992ZM16.6777 11.2949L16.6031 11.1094L16.6024 11.1097L16.6777 11.2949ZM15.3418 12.209L15.1939 12.0743L15.1938 12.0744L15.3418 12.209ZM14.542 13.5889L14.7311 13.654L14.7313 13.6534L14.542 13.5889ZM14.4189 18.6777L14.2258 18.7298L14.2269 18.7335L14.4189 18.6777ZM14.8496 19.6006L14.6873 19.7176L14.6905 19.7218L14.8496 19.6006ZM15.5 20.1543L15.4106 20.3332L15.4122 20.334L15.5 20.1543ZM17.75 19.6357L17.5915 19.5138L17.591 19.5144L17.75 19.6357ZM18.1455 18.8359L17.9543 18.7771L17.9533 18.7805L18.1455 18.8359ZM17.7676 16.041L17.6056 16.1584L17.6071 16.1604L17.7676 16.041ZM17.1348 15.5049L17.0419 15.6821L17.047 15.6846L17.1348 15.5049ZM15.1924 15.6016L15.293 15.7744L15.2953 15.7731L15.1924 15.6016ZM14.1201 17.3066L14.0315 17.4859C14.0918 17.5158 14.1631 17.5132 14.2212 17.4792C14.2793 17.4452 14.3164 17.3842 14.3199 17.317L14.1201 17.3066ZM13.3379 16.9199L13.1382 16.9082C13.1335 16.9884 13.1772 17.0636 13.2493 17.0992L13.3379 16.9199ZM13.6543 15.5488L13.4719 15.4666L13.471 15.4688L13.6543 15.5488ZM14.4014 14.459L14.2613 14.3162L14.2599 14.3176L14.4014 14.459ZM15.5176 13.7383L15.4446 13.5521L15.4437 13.5524L15.5176 13.7383ZM18.5586 13.835L18.4673 14.0129L18.4692 14.0138L18.5586 13.835ZM19.6924 14.7754L19.5324 14.8954L19.5335 14.8969L19.6924 14.7754ZM20.3779 16.1553L20.186 16.2114L20.1861 16.2119L20.3779 16.1553ZM20.3076 19.5127L20.1203 19.4427L20.1196 19.4445L20.3076 19.5127ZM14.5244 21.7891L14.4381 21.9695L14.4389 21.9698L14.5244 21.7891ZM13.5752 11.1543L13.4219 11.0259L13.4218 11.026L13.5752 11.1543ZM15.5967 9.64258L15.678 9.82529L15.6791 9.82479L15.5967 9.64258ZM18.3828 9.29766H18.6992V8.89766H18.3828V9.29766ZM18.4992 9.09766V10.9697H18.8992V9.09766H18.4992ZM18.6992 10.7697H18.5498V11.1697H18.6992V10.7697ZM18.5498 10.7697C17.8207 10.7697 17.1705 10.8812 16.6031 11.1094L16.7524 11.4805C17.2631 11.2751 17.8609 11.1697 18.5498 11.1697V10.7697ZM16.6024 11.1097C16.0439 11.3367 15.5731 11.6579 15.1939 12.0743L15.4897 12.3436C15.8254 11.9749 16.2452 11.6867 16.7531 11.4802L16.6024 11.1097ZM15.1938 12.0744C14.8224 12.483 14.5425 12.9673 14.3527 13.5244L14.7313 13.6534C14.9048 13.144 15.158 12.7084 15.4898 12.3435L15.1938 12.0744ZM14.3529 13.5237C14.1632 14.0745 14.0695 14.6739 14.0695 15.3203H14.4695C14.4695 14.7128 14.5575 14.158 14.7311 13.654L14.3529 13.5237ZM14.0695 15.3203V17.3945H14.4695V15.3203H14.0695ZM14.0695 17.3945C14.0695 17.8939 14.1206 18.3398 14.2259 18.7298L14.612 18.6256C14.5181 18.2774 14.4695 17.8678 14.4695 17.3945H14.0695ZM14.2269 18.7335C14.3374 19.1141 14.4898 19.4435 14.6874 19.7175L15.0118 19.4836C14.8461 19.2538 14.7115 18.9679 14.611 18.622L14.2269 18.7335ZM14.6905 19.7218C14.8942 19.9891 15.1339 20.1949 15.4106 20.3332L15.5894 19.9754C15.3739 19.8676 15.18 19.7042 15.0087 19.4794L14.6905 19.7218ZM15.4122 20.334C15.6933 20.4713 15.999 20.5389 16.3262 20.5389V20.1389C16.0557 20.1389 15.8106 20.0834 15.5878 19.9746L15.4122 20.334ZM16.3262 20.5389C16.6533 20.5389 16.9546 20.4713 17.2259 20.3323L17.0436 19.9763C16.8345 20.0834 16.5967 20.1389 16.3262 20.1389V20.5389ZM17.2259 20.3323C17.4937 20.1951 17.7217 20.0025 17.909 19.7571L17.591 19.5144C17.4385 19.7143 17.2563 19.8674 17.0436 19.9763L17.2259 20.3323ZM17.9085 19.7577C18.101 19.5074 18.2435 19.2177 18.3377 18.8914L17.9533 18.7805C17.8717 19.0635 17.7505 19.307 17.5915 19.5138L17.9085 19.7577ZM18.3367 18.8948C18.437 18.5686 18.4861 18.2145 18.4861 17.834H18.0861C18.0861 18.1801 18.0415 18.4939 17.9544 18.7771L18.3367 18.8948ZM18.4861 17.834C18.4861 17.4602 18.4402 17.1102 18.3465 16.7854L17.9621 16.8963C18.0442 17.1808 18.0861 17.493 18.0861 17.834H18.4861ZM18.3465 16.7854C18.2527 16.4603 18.1138 16.1715 17.9281 15.9217L17.6071 16.1604C17.7612 16.3676 17.8801 16.612 17.9621 16.8963L18.3465 16.7854ZM17.9295 15.9236C17.741 15.6636 17.5049 15.4631 17.2225 15.3252L17.047 15.6846C17.2685 15.7928 17.4543 15.9497 17.6057 16.1584L17.9295 15.9236ZM17.2276 15.3277C16.9491 15.1818 16.6352 15.1115 16.291 15.1115V15.5115C16.5796 15.5115 16.8283 15.5701 17.042 15.682L17.2276 15.3277ZM16.291 15.1115C15.848 15.1115 15.4456 15.2164 15.0895 15.4301L15.2953 15.7731C15.5837 15.6 15.9137 15.5115 16.291 15.5115V15.1115ZM15.0918 15.4287C14.7423 15.6321 14.4629 15.901 14.2574 16.235L14.5981 16.4447C14.7675 16.1693 14.998 15.9461 15.293 15.7744L15.0918 15.4287ZM14.2574 16.235C14.0533 16.5667 13.9398 16.9213 13.9204 17.2963L14.3199 17.317C14.3356 17.0123 14.4272 16.7223 14.5981 16.4447L14.2574 16.235ZM14.2088 17.1274L13.4265 16.7406L13.2493 17.0992L14.0315 17.4859L14.2088 17.1274ZM13.5375 16.9317C13.5656 16.4548 13.6663 16.0212 13.8376 15.6289L13.471 15.4688C13.279 15.9085 13.1688 16.3889 13.1382 16.9082L13.5375 16.9317ZM13.8366 15.631C14.0146 15.2362 14.25 14.8932 14.5428 14.6004L14.2599 14.3176C13.9316 14.6459 13.669 15.0294 13.472 15.4666L13.8366 15.631ZM14.5415 14.6017C14.8381 14.3105 15.1875 14.0846 15.5914 13.9242L15.4437 13.5524C14.9922 13.7318 14.5974 13.9863 14.2613 14.3162L14.5415 14.6017ZM15.5906 13.9245C15.998 13.7648 16.4533 13.6834 16.959 13.6834V13.2834C16.4099 13.2834 15.9043 13.3719 15.4446 13.5521L15.5906 13.9245ZM16.959 13.6834C17.5425 13.6834 18.0434 13.7955 18.4673 14.0129L18.6499 13.657C18.1598 13.4057 17.5942 13.2834 16.959 13.2834V13.6834ZM18.4692 14.0138C18.8992 14.2288 19.2527 14.5225 19.5324 14.8954L19.8524 14.6554C19.5344 14.2315 19.1321 13.8981 18.648 13.6561L18.4692 14.0138ZM19.5335 14.8969C19.822 15.2742 20.0399 15.7116 20.186 16.2114L20.5699 16.0992C20.4112 15.556 20.1721 15.0735 19.8513 14.6539L19.5335 14.8969ZM20.1861 16.2119C20.3327 16.708 20.4064 17.2337 20.4064 17.79H20.8064C20.8064 17.1979 20.7279 16.6338 20.5697 16.0986L20.1861 16.2119ZM20.4064 17.79C20.4064 18.3833 20.3105 18.9336 20.1203 19.4427L20.495 19.5827C20.7032 19.0254 20.8064 18.4272 20.8064 17.79H20.4064ZM20.1196 19.4445C19.9349 19.9537 19.6673 20.3963 19.3172 20.7742L19.6106 21.0461C19.9987 20.6272 20.2936 20.1381 20.4956 19.5809L20.1196 19.4445ZM19.3172 20.7742C18.968 21.1511 18.5462 21.4457 18.0494 21.6579L18.2065 22.0257C18.7526 21.7925 19.2215 21.466 19.6106 21.0461L19.3172 20.7742ZM18.0494 21.6579C17.5561 21.8685 16.9975 21.9758 16.3701 21.9758V22.3758C17.0436 22.3758 17.6568 22.2604 18.2065 22.0257L18.0494 21.6579ZM16.3701 21.9758C15.7101 21.9758 15.1247 21.8518 14.6099 21.6083L14.4389 21.9698C15.014 22.2419 15.6591 22.3758 16.3701 22.3758V21.9758ZM14.6107 21.6086C14.0972 21.363 13.6569 21.0231 13.2884 20.5876L12.9831 20.846C13.388 21.3246 13.8735 21.6995 14.4381 21.9695L14.6107 21.6086ZM13.2884 20.5876C12.9192 20.1512 12.6352 19.6406 12.4376 19.0534L12.0585 19.181C12.271 19.8125 12.5789 20.3683 12.9831 20.846L13.2884 20.5876ZM12.4376 19.0534C12.2401 18.4666 12.1404 17.8292 12.1404 17.1396H11.7404C11.7404 17.8681 11.8458 18.549 12.0585 19.181L12.4376 19.0534ZM12.1404 17.1396V16.208H11.7404V17.1396H12.1404ZM12.1404 16.208C12.1404 15.2245 12.2756 14.3136 12.544 13.474L12.163 13.3522C11.8807 14.2352 11.7404 15.1876 11.7404 16.208H12.1404ZM12.544 13.474C12.8121 12.6354 13.2074 11.9058 13.7286 11.2826L13.4218 11.026C12.8649 11.6918 12.4457 12.4681 12.163 13.3522L12.544 13.474ZM13.7285 11.2827C14.2532 10.6565 14.9021 10.1708 15.678 9.82529L15.5153 9.45987C14.6858 9.82922 13.9871 10.3513 13.4219 11.0259L13.7285 11.2827ZM15.6791 9.82479C16.4514 9.47531 17.3511 9.29766 18.3828 9.29766V8.89766C17.3052 8.89766 16.3475 9.08328 15.5142 9.46037L15.6791 9.82479Z" fill="white"/>
</g>
<defs>
<clipPath id="clip0_4_13">
<rect width="32" height="32" fill="white"/>
</clipPath>
</defs>
</svg>
