<svg width="32" height="32" viewBox="0 0 32 32" fill="none" xmlns="http://www.w3.org/2000/svg">
<g clip-path="url(#clip0_4_13)">
<path d="M16 32C24.8366 32 32 24.8366 32 16C32 7.16344 24.8366 0 16 0C7.16344 0 0 7.16344 0 16C0 24.8366 7.16344 32 16 32Z" fill="#E6B136"/>
<g style="mix-blend-mode:multiply" opacity="0.1">
<path fill-rule="evenodd" clip-rule="evenodd" d="M24.3428 3.13232C28.9191 8.87177 28.5505 17.2573 23.2373 22.5706C17.528 28.2799 8.27148 28.2799 2.56223 22.5706C2.2825 22.2909 2.01648 22.0026 1.76416 21.7067C4.02814 27.3486 9.54881 31.3326 16 31.3326C24.4683 31.3326 31.3332 24.4677 31.3332 15.9994C31.3332 10.6078 28.5504 5.8661 24.3428 3.13232Z" fill="black"/>
</g>
<g style="mix-blend-mode:multiply" opacity="0.1">
<path fill-rule="evenodd" clip-rule="evenodd" d="M25.7713 4.18262C30.6308 10.2119 30.2607 19.061 24.6609 24.6608C19.0615 30.2602 10.2132 30.6307 4.18396 25.7722C6.99643 29.1689 11.2455 31.3329 16 31.3329C24.4683 31.3329 31.3332 24.468 31.3332 15.9997C31.3332 11.2446 29.1687 6.99508 25.7713 4.18262Z" fill="black"/>
</g>
<g style="mix-blend-mode:soft-light">
<path fill-rule="evenodd" clip-rule="evenodd" d="M3.48971 24.8677C0.151066 18.7651 0.974994 11.0636 6.01933 6.01927C11.0639 0.974682 18.7659 0.15093 24.8687 3.49016C22.365 1.71201 19.3046 0.666603 16 0.666603C7.53166 0.666603 0.666748 7.53152 0.666748 15.9998C0.666748 19.3041 1.71192 22.3642 3.48971 24.8677Z" fill="white"/>
</g>
<g style="mix-blend-mode:soft-light">
<path fill-rule="evenodd" clip-rule="evenodd" d="M2.10074 9.5143C3.7727 5.93677 6.78527 3.11129 10.4921 1.68422C10.546 1.73235 10.5987 1.78219 10.6502 1.83374C12.4838 3.66728 10.9119 5.7442 8.66144 7.99465C6.41099 10.2451 4.33416 11.8169 2.50063 9.98335C2.35337 9.83609 2.22012 9.6793 2.10074 9.5143Z" fill="white"/>
</g>
<path d="M20.5186 9.20312V10.4688L15.4912 22H13.0391L18.0664 11.0312H11.5625V9.20312H20.5186Z" fill="black"/>
<path d="M20.5186 9.20312H20.7186C20.7186 9.09267 20.629 9.00312 20.5186 9.00312V9.20312ZM20.5186 10.4688L20.7019 10.5487C20.7129 10.5235 20.7186 10.4963 20.7186 10.4688H20.5186ZM15.4912 22V22.2C15.5708 22.2 15.6428 22.1529 15.6745 22.0799L15.4912 22ZM13.0391 22L12.8572 21.9167C12.8289 21.9786 12.834 22.0507 12.8707 22.108C12.9075 22.1653 12.971 22.2 13.0391 22.2V22ZM18.0664 11.0312L18.2482 11.1146C18.2766 11.0527 18.2715 10.9806 18.2347 10.9232C18.1979 10.8659 18.1345 10.8312 18.0664 10.8312V11.0312ZM11.5625 11.0312H11.3625C11.3625 11.1417 11.452 11.2313 11.5625 11.2313V11.0312ZM11.5625 9.20312V9.00312C11.452 9.00312 11.3625 9.09267 11.3625 9.20312H11.5625ZM20.3186 9.20312V10.4688H20.7186V9.20312H20.3186ZM20.3352 10.3888L15.3079 21.9201L15.6745 22.0799L20.7019 10.5487L20.3352 10.3888ZM15.4912 21.8H13.0391V22.2H15.4912V21.8ZM13.2209 22.0833L18.2482 11.1146L17.8846 10.9479L12.8572 21.9167L13.2209 22.0833ZM18.0664 10.8312H11.5625V11.2313H18.0664V10.8312ZM11.7625 11.0312V9.20312H11.3625V11.0312H11.7625ZM11.5625 9.40313H20.5186V9.00312H11.5625V9.40313Z" fill="white"/>
</g>
<defs>
<clipPath id="clip0_4_13">
<rect width="32" height="32" fill="white"/>
</clipPath>
</defs>
</svg>
