<svg width="32" height="32" viewBox="0 0 32 32" fill="none" xmlns="http://www.w3.org/2000/svg">
<g clip-path="url(#clip0_4_13)">
<path d="M16 32C24.8366 32 32 24.8366 32 16C32 7.16344 24.8366 0 16 0C7.16344 0 0 7.16344 0 16C0 24.8366 7.16344 32 16 32Z" fill="#20C7D4"/>
<g style="mix-blend-mode:multiply" opacity="0.1">
<path fill-rule="evenodd" clip-rule="evenodd" d="M24.3428 3.13232C28.9191 8.87177 28.5505 17.2573 23.2373 22.5706C17.528 28.2799 8.27148 28.2799 2.56223 22.5706C2.2825 22.2909 2.01648 22.0026 1.76416 21.7067C4.02814 27.3486 9.54881 31.3326 16 31.3326C24.4683 31.3326 31.3332 24.4677 31.3332 15.9994C31.3332 10.6078 28.5504 5.8661 24.3428 3.13232Z" fill="black"/>
</g>
<g style="mix-blend-mode:multiply" opacity="0.1">
<path fill-rule="evenodd" clip-rule="evenodd" d="M25.7713 4.18262C30.6308 10.2119 30.2607 19.061 24.6609 24.6608C19.0615 30.2602 10.2132 30.6307 4.18396 25.7722C6.99643 29.1689 11.2455 31.3329 16 31.3329C24.4683 31.3329 31.3332 24.468 31.3332 15.9997C31.3332 11.2446 29.1687 6.99508 25.7713 4.18262Z" fill="black"/>
</g>
<g style="mix-blend-mode:soft-light">
<path fill-rule="evenodd" clip-rule="evenodd" d="M3.48971 24.8677C0.151066 18.7651 0.974994 11.0636 6.01933 6.01927C11.0639 0.974682 18.7659 0.15093 24.8687 3.49016C22.365 1.71201 19.3046 0.666603 16 0.666603C7.53166 0.666603 0.666748 7.53152 0.666748 15.9998C0.666748 19.3041 1.71192 22.3642 3.48971 24.8677Z" fill="white"/>
</g>
<g style="mix-blend-mode:soft-light">
<path fill-rule="evenodd" clip-rule="evenodd" d="M2.10074 9.5143C3.7727 5.93677 6.78527 3.11129 10.4921 1.68422C10.546 1.73235 10.5987 1.78219 10.6502 1.83374C12.4838 3.66728 10.9119 5.7442 8.66144 7.99465C6.41099 10.2451 4.33416 11.8169 2.50063 9.98335C2.35337 9.83609 2.22012 9.6793 2.10074 9.5143Z" fill="white"/>
</g>
<path d="M20.4131 18.502C20.4131 19.2988 20.2256 19.9727 19.8506 20.5234C19.4814 21.0684 18.9746 21.4814 18.3301 21.7627C17.6914 22.0381 16.9648 22.1758 16.1504 22.1758C15.3418 22.1758 14.6123 22.0381 13.9619 21.7627C13.3174 21.4814 12.8047 21.0684 12.4238 20.5234C12.0488 19.9727 11.8613 19.2988 11.8613 18.502C11.8613 17.9688 11.9668 17.4854 12.1777 17.0518C12.3945 16.6182 12.6934 16.2461 13.0742 15.9355C13.4551 15.6191 13.9062 15.3789 14.4277 15.2148C14.9492 15.0449 15.5176 14.96 16.1328 14.96C16.9531 14.96 17.6855 15.1094 18.3301 15.4082C18.9805 15.7012 19.4902 16.1143 19.8594 16.6475C20.2285 17.1748 20.4131 17.793 20.4131 18.502ZM18.0752 18.3613C18.0752 17.9512 17.9932 17.5967 17.8291 17.2979C17.6709 16.9932 17.4453 16.7588 17.1523 16.5947C16.8594 16.4307 16.5195 16.3486 16.1328 16.3486C15.7402 16.3486 15.3975 16.4307 15.1045 16.5947C14.8174 16.7588 14.5918 16.9932 14.4277 17.2979C14.2695 17.5967 14.1904 17.9512 14.1904 18.3613C14.1904 18.7773 14.2695 19.1348 14.4277 19.4336C14.5918 19.7266 14.8203 19.9521 15.1133 20.1104C15.4062 20.2686 15.752 20.3477 16.1504 20.3477C16.5488 20.3477 16.8916 20.2686 17.1787 20.1104C17.4658 19.9521 17.6855 19.7266 17.8379 19.4336C17.9961 19.1348 18.0752 18.7773 18.0752 18.3613ZM20.1318 12.5781C20.1318 13.2227 19.9619 13.7969 19.6221 14.3008C19.2822 14.7988 18.8105 15.1885 18.207 15.4697C17.6094 15.751 16.9238 15.8916 16.1504 15.8916C15.377 15.8916 14.6855 15.751 14.0762 15.4697C13.4727 15.1885 12.998 14.7988 12.6523 14.3008C12.3125 13.7969 12.1426 13.2227 12.1426 12.5781C12.1426 11.8164 12.3154 11.1719 12.6611 10.6445C13.0068 10.1113 13.4785 9.70703 14.0762 9.43164C14.6797 9.15625 15.3652 9.01855 16.1328 9.01855C16.9121 9.01855 17.6035 9.15625 18.207 9.43164C18.8105 9.70703 19.2822 10.1113 19.6221 10.6445C19.9619 11.1719 20.1318 11.8164 20.1318 12.5781ZM17.8115 12.6748C17.8115 12.3115 17.7441 11.9951 17.6094 11.7256C17.4746 11.4502 17.2812 11.2363 17.0293 11.084C16.7832 10.9316 16.4844 10.8555 16.1328 10.8555C15.793 10.8555 15.5 10.9287 15.2539 11.0752C15.0078 11.2217 14.8174 11.4326 14.6826 11.708C14.5479 11.9775 14.4805 12.2998 14.4805 12.6748C14.4805 13.0439 14.5479 13.3662 14.6826 13.6416C14.8174 13.917 15.0078 14.1338 15.2539 14.292C15.5059 14.4443 15.8047 14.5205 16.1504 14.5205C16.4961 14.5205 16.792 14.4443 17.0381 14.292C17.2842 14.1338 17.4746 13.917 17.6094 13.6416C17.7441 13.3662 17.8115 13.0439 17.8115 12.6748Z" fill="black"/>
<path d="M19.8506 20.5234L19.6853 20.4109L19.685 20.4113L19.8506 20.5234ZM18.3301 21.7627L18.4093 21.9464L18.4101 21.946L18.3301 21.7627ZM13.9619 21.7627L13.8819 21.946L13.8839 21.9469L13.9619 21.7627ZM12.4238 20.5234L12.2585 20.636L12.2599 20.638L12.4238 20.5234ZM12.1777 17.0518L11.9988 16.9623L11.9979 16.9643L12.1777 17.0518ZM13.0742 15.9355L13.2006 16.0906L13.202 16.0894L13.0742 15.9355ZM14.4277 15.2148L14.4878 15.4056L14.4897 15.405L14.4277 15.2148ZM18.3301 15.4082L18.2459 15.5897L18.2479 15.5906L18.3301 15.4082ZM19.8594 16.6475L19.6949 16.7613L19.6955 16.7622L19.8594 16.6475ZM17.8291 17.2979L17.6516 17.39L17.6538 17.3941L17.8291 17.2979ZM15.1045 16.5947L15.0068 16.4202L15.0053 16.4211L15.1045 16.5947ZM14.4277 17.2979L14.2516 17.203L14.251 17.2043L14.4277 17.2979ZM14.4277 19.4336L14.2509 19.5272L14.2532 19.5313L14.4277 19.4336ZM17.8379 19.4336L17.6611 19.34L17.6604 19.3413L17.8379 19.4336ZM19.6221 14.3008L19.7873 14.4135L19.7879 14.4126L19.6221 14.3008ZM18.207 15.4697L18.1225 15.2884L18.1219 15.2888L18.207 15.4697ZM14.0762 15.4697L13.9917 15.651L13.9924 15.6513L14.0762 15.4697ZM12.6523 14.3008L12.4865 14.4126L12.488 14.4148L12.6523 14.3008ZM12.6611 10.6445L12.8284 10.7542L12.8289 10.7533L12.6611 10.6445ZM14.0762 9.43164L13.9931 9.24969L13.9925 9.25L14.0762 9.43164ZM19.6221 10.6445L19.4534 10.752L19.454 10.7529L19.6221 10.6445ZM17.6094 11.7256L17.4297 11.8135L17.4305 11.815L17.6094 11.7256ZM17.0293 11.084L16.924 11.254L16.9258 11.2551L17.0293 11.084ZM14.6826 11.708L14.8615 11.7975L14.8623 11.7959L14.6826 11.708ZM15.2539 14.292L15.1457 14.4603L15.1504 14.4631L15.2539 14.292ZM17.0381 14.292L17.1434 14.4621L17.1462 14.4602L17.0381 14.292ZM20.2131 18.502C20.2131 19.2667 20.0335 19.8993 19.6853 20.4109L20.0159 20.636C20.4176 20.046 20.6131 19.331 20.6131 18.502H20.2131ZM19.685 20.4113C19.3386 20.9227 18.8624 21.3122 18.2501 21.5794L18.4101 21.946C19.0868 21.6507 19.6243 21.214 20.0162 20.6356L19.685 20.4113ZM18.2509 21.579C17.6411 21.842 16.9422 21.9758 16.1504 21.9758V22.3758C16.9875 22.3758 17.7417 22.2342 18.4093 21.9463L18.2509 21.579ZM16.1504 21.9758C15.3647 21.9758 14.6623 21.8421 14.0399 21.5785L13.8839 21.9469C14.5623 22.2341 15.3189 22.3758 16.1504 22.3758V21.9758ZM14.0419 21.5794C13.4291 21.312 12.9463 20.9218 12.5878 20.4089L12.2599 20.638C12.6631 21.2149 13.2057 21.6509 13.8819 21.946L14.0419 21.5794ZM12.5891 20.4109C12.2409 19.8993 12.0613 19.2667 12.0613 18.502H11.6613C11.6613 19.331 11.8568 20.046 12.2585 20.636L12.5891 20.4109ZM12.0613 18.502C12.0613 17.9958 12.1613 17.5428 12.3576 17.1393L11.9979 16.9643C11.7723 17.4279 11.6613 17.9417 11.6613 18.502H12.0613ZM12.3566 17.1412C12.5606 16.7333 12.8414 16.3835 13.2006 16.0906L12.9478 15.7805C12.5453 16.1087 12.2285 16.503 11.9988 16.9623L12.3566 17.1412ZM13.202 16.0894C13.5609 15.7912 13.9885 15.5627 14.4878 15.4056L14.3677 15.0241C13.824 15.1951 13.3492 15.4471 12.9464 15.7817L13.202 16.0894ZM14.4897 15.405C14.9889 15.2423 15.5361 15.16 16.1328 15.16V14.76C15.4991 14.76 14.9095 14.8475 14.3658 15.0247L14.4897 15.405ZM16.1328 15.16C16.9285 15.16 17.6316 15.3048 18.246 15.5896L18.4142 15.2268C17.7395 14.914 16.9777 14.76 16.1328 14.76V15.16ZM18.2479 15.5906C18.8686 15.8701 19.3485 16.2609 19.6949 16.7613L20.0238 16.5336C19.6319 15.9676 19.0923 15.5322 18.4122 15.2258L18.2479 15.5906ZM19.6955 16.7622C20.0388 17.2525 20.2131 17.8296 20.2131 18.502H20.6131C20.6131 17.7563 20.4183 17.0971 20.0232 16.5328L19.6955 16.7622ZM18.2752 18.3613C18.2752 17.9243 18.1877 17.5354 18.0044 17.2016L17.6538 17.3941C17.7987 17.658 17.8752 17.978 17.8752 18.3613H18.2752ZM18.0066 17.2057C17.8308 16.8672 17.5779 16.6038 17.2501 16.4202L17.0546 16.7692C17.3127 16.9138 17.511 17.1191 17.6516 17.39L18.0066 17.2057ZM17.2501 16.4202C16.923 16.2371 16.5485 16.1486 16.1328 16.1486V16.5486C16.4906 16.5486 16.7958 16.6243 17.0546 16.7692L17.2501 16.4202ZM16.1328 16.1486C15.7118 16.1486 15.3343 16.2368 15.0068 16.4202L15.2022 16.7692C15.4606 16.6245 15.7686 16.5486 16.1328 16.5486V16.1486ZM15.0053 16.4211C14.6841 16.6046 14.4326 16.867 14.2516 17.203L14.6038 17.3927C14.751 17.1193 14.9507 16.913 15.2037 16.7684L15.0053 16.4211ZM14.251 17.2043C14.0746 17.5375 13.9904 17.9254 13.9904 18.3613H14.3904C14.3904 17.9769 14.4645 17.6559 14.6045 17.3914L14.251 17.2043ZM13.9904 18.3613C13.9904 18.8026 14.0744 19.1936 14.251 19.5272L14.6045 19.34C14.4647 19.0759 14.3904 18.7521 14.3904 18.3613H13.9904ZM14.2532 19.5313C14.4357 19.8571 14.6916 20.1099 15.0183 20.2863L15.2083 19.9344C14.949 19.7944 14.7479 19.596 14.6022 19.3359L14.2532 19.5313ZM15.0183 20.2863C15.3456 20.4631 15.7253 20.5477 16.1504 20.5477V20.1477C15.7786 20.1477 15.4669 20.074 15.2083 19.9344L15.0183 20.2863ZM16.1504 20.5477C16.5754 20.5477 16.9528 20.4632 17.2752 20.2855L17.0822 19.9352C16.8304 20.0739 16.5223 20.1477 16.1504 20.1477V20.5477ZM17.2752 20.2855C17.5972 20.1081 17.8449 19.8536 18.0153 19.5259L17.6604 19.3413C17.5262 19.5996 17.3345 19.7962 17.0822 19.9352L17.2752 20.2855ZM18.0146 19.5272C18.1912 19.1936 18.2752 18.8026 18.2752 18.3613H17.8752C17.8752 18.7521 17.8009 19.0759 17.6611 19.34L18.0146 19.5272ZM19.9318 12.5781C19.9318 13.1853 19.7724 13.7201 19.4563 14.189L19.7879 14.4126C20.1514 13.8736 20.3318 13.26 20.3318 12.5781H19.9318ZM19.4569 14.1881C19.1393 14.6534 18.697 15.0207 18.1226 15.2884L18.2915 15.651C18.9241 15.3562 19.4251 14.9443 19.7873 14.4135L19.4569 14.1881ZM18.1219 15.2888C17.555 15.5555 16.8994 15.6916 16.1504 15.6916V16.0916C16.9483 16.0916 17.6637 15.9464 18.2922 15.6507L18.1219 15.2888ZM16.1504 15.6916C15.4015 15.6916 14.7394 15.5555 14.16 15.2881L13.9924 15.6513C14.6317 15.9464 15.3524 16.0916 16.1504 16.0916V15.6916ZM14.1607 15.2884C13.586 15.0206 13.1402 14.6529 12.8166 14.1867L12.488 14.4148C12.8559 14.9448 13.3593 15.3563 13.9917 15.651L14.1607 15.2884ZM12.8182 14.189C12.502 13.7201 12.3426 13.1853 12.3426 12.5781H11.9426C11.9426 13.26 12.123 13.8736 12.4865 14.4126L12.8182 14.189ZM12.3426 12.5781C12.3426 11.8472 12.5081 11.2427 12.8284 10.7542L12.4939 10.5349C12.1227 11.101 11.9426 11.7856 11.9426 12.5781H12.3426ZM12.8289 10.7533C13.1533 10.253 13.5953 9.87343 14.1599 9.61328L13.9925 9.25C13.3617 9.54063 12.8604 9.96961 12.4933 10.5357L12.8289 10.7533ZM14.1592 9.61359C14.7329 9.35182 15.3894 9.21855 16.1328 9.21855V8.81855C15.3411 8.81855 14.6265 8.96068 13.9931 9.24969L14.1592 9.61359ZM16.1328 9.21855C16.8884 9.21855 17.5507 9.35199 18.124 9.61359L18.2901 9.24969C17.6563 8.96051 16.9358 8.81855 16.1328 8.81855V9.21855ZM18.124 9.61359C18.6942 9.87378 19.1354 10.253 19.4534 10.752L19.7907 10.537C19.4291 9.96962 18.9269 9.54028 18.2901 9.24969L18.124 9.61359ZM19.454 10.7529C19.7689 11.2416 19.9318 11.8465 19.9318 12.5781H20.3318C20.3318 11.7863 20.1549 11.1022 19.7902 10.5362L19.454 10.7529ZM18.0115 12.6748C18.0115 12.2868 17.9395 11.9386 17.7883 11.6361L17.4305 11.815C17.5488 12.0516 17.6115 12.3363 17.6115 12.6748H18.0115ZM17.789 11.6377C17.6381 11.3293 17.419 11.0859 17.1328 10.9128L16.9258 11.2551C17.1435 11.3868 17.3111 11.5711 17.4297 11.8135L17.789 11.6377ZM17.1346 10.9139C16.8507 10.7382 16.5136 10.6555 16.1328 10.6555V11.0555C16.4552 11.0555 16.7157 11.1251 16.924 11.254L17.1346 10.9139ZM16.1328 10.6555C15.7637 10.6555 15.434 10.7353 15.1516 10.9033L15.3562 11.2471C15.566 11.1222 15.8222 11.0555 16.1328 11.0555V10.6555ZM15.1516 10.9033C14.8697 11.0711 14.6536 11.3124 14.503 11.6201L14.8623 11.7959C14.9812 11.5529 15.1459 11.3722 15.3562 11.2471L15.1516 10.9033ZM14.5037 11.6186C14.3521 11.9218 14.2805 12.2762 14.2805 12.6748H14.6805C14.6805 12.3234 14.7436 12.0333 14.8615 11.7975L14.5037 11.6186ZM14.2805 12.6748C14.2805 13.0683 14.3524 13.4217 14.503 13.7295L14.8623 13.5537C14.7433 13.3107 14.6805 13.0196 14.6805 12.6748H14.2805ZM14.503 13.7295C14.653 14.0361 14.8674 14.2813 15.1458 14.4602L15.3621 14.1238C15.1482 13.9863 14.9818 13.7979 14.8623 13.5537L14.503 13.7295ZM15.1504 14.4631C15.4387 14.6374 15.7746 14.7205 16.1504 14.7205V14.3205C15.8347 14.3205 15.573 14.2512 15.3574 14.1208L15.1504 14.4631ZM16.1504 14.7205C16.526 14.7205 16.86 14.6375 17.1434 14.462L16.9328 14.1219C16.724 14.2512 16.4662 14.3205 16.1504 14.3205V14.7205ZM17.1462 14.4602C17.4246 14.2813 17.639 14.0361 17.789 13.7295L17.4297 13.5537C17.3102 13.7979 17.1438 13.9863 16.9299 14.1238L17.1462 14.4602ZM17.789 13.7295C17.9396 13.4217 18.0115 13.0683 18.0115 12.6748H17.6115C17.6115 13.0196 17.5486 13.3107 17.4297 13.5537L17.789 13.7295Z" fill="white"/>
</g>
<defs>
<clipPath id="clip0_4_13">
<rect width="32" height="32" fill="white"/>
</clipPath>
</defs>
</svg>
