<svg width="32" height="32" viewBox="0 0 32 32" fill="none" xmlns="http://www.w3.org/2000/svg">
<g clip-path="url(#clip0_4_13)">
<path d="M16 32C24.8366 32 32 24.8366 32 16C32 7.16344 24.8366 0 16 0C7.16344 0 0 7.16344 0 16C0 24.8366 7.16344 32 16 32Z" fill="#A881FC"/>
<g style="mix-blend-mode:multiply" opacity="0.1">
<path fill-rule="evenodd" clip-rule="evenodd" d="M24.3428 3.13232C28.9191 8.87177 28.5505 17.2573 23.2373 22.5706C17.528 28.2799 8.27148 28.2799 2.56223 22.5706C2.2825 22.2909 2.01648 22.0026 1.76416 21.7067C4.02814 27.3486 9.54881 31.3326 16 31.3326C24.4683 31.3326 31.3332 24.4677 31.3332 15.9994C31.3332 10.6078 28.5504 5.8661 24.3428 3.13232Z" fill="black"/>
</g>
<g style="mix-blend-mode:multiply" opacity="0.1">
<path fill-rule="evenodd" clip-rule="evenodd" d="M25.7713 4.18262C30.6308 10.2119 30.2607 19.061 24.6609 24.6608C19.0615 30.2602 10.2132 30.6307 4.18396 25.7722C6.99643 29.1689 11.2455 31.3329 16 31.3329C24.4683 31.3329 31.3332 24.468 31.3332 15.9997C31.3332 11.2446 29.1687 6.99508 25.7713 4.18262Z" fill="black"/>
</g>
<g style="mix-blend-mode:soft-light">
<path fill-rule="evenodd" clip-rule="evenodd" d="M3.48971 24.8677C0.151066 18.7651 0.974994 11.0636 6.01933 6.01927C11.0639 0.974682 18.7659 0.15093 24.8687 3.49016C22.365 1.71201 19.3046 0.666603 16 0.666603C7.53166 0.666603 0.666748 7.53152 0.666748 15.9998C0.666748 19.3041 1.71192 22.3642 3.48971 24.8677Z" fill="white"/>
</g>
<g style="mix-blend-mode:soft-light">
<path fill-rule="evenodd" clip-rule="evenodd" d="M2.10074 9.5143C3.7727 5.93677 6.78527 3.11129 10.4921 1.68422C10.546 1.73235 10.5987 1.78219 10.6502 1.83374C12.4838 3.66728 10.9119 5.7442 8.66144 7.99465C6.41099 10.2451 4.33416 11.8169 2.50063 9.98335C2.35337 9.83609 2.22012 9.6793 2.10074 9.5143Z" fill="white"/>
</g>
<path d="M13.6719 20.1982H13.8389C14.5947 20.1982 15.2334 20.1016 15.7549 19.9082C16.2822 19.7148 16.707 19.4424 17.0293 19.0908C17.3574 18.7334 17.5947 18.3086 17.7412 17.8164C17.8936 17.3184 17.9697 16.7676 17.9697 16.1641V13.8438C17.9697 13.3516 17.9199 12.9209 17.8203 12.5518C17.7207 12.1768 17.5801 11.8633 17.3984 11.6113C17.2227 11.3594 17.0146 11.1719 16.7744 11.0488C16.5342 10.9199 16.2764 10.8555 16.001 10.8555C15.6963 10.8555 15.4268 10.9258 15.1924 11.0664C14.958 11.207 14.7588 11.4004 14.5947 11.6465C14.4365 11.8867 14.3135 12.165 14.2256 12.4814C14.1436 12.7979 14.1025 13.1318 14.1025 13.4834C14.1025 13.8232 14.1406 14.1484 14.2168 14.459C14.2988 14.7695 14.4189 15.0449 14.5771 15.2852C14.7412 15.5254 14.9463 15.7158 15.1924 15.8564C15.4385 15.9912 15.7256 16.0586 16.0537 16.0586C16.3643 16.0586 16.6455 16 16.8975 15.8828C17.1553 15.7598 17.3779 15.5986 17.5654 15.3994C17.7529 15.1943 17.8965 14.9688 17.9961 14.7227C18.1016 14.4707 18.1602 14.2158 18.1719 13.958L18.9893 14.3096C18.9893 14.7373 18.8984 15.1592 18.7168 15.5752C18.541 15.9912 18.292 16.3691 17.9697 16.709C17.6533 17.043 17.2842 17.3125 16.8623 17.5176C16.4404 17.7168 15.9863 17.8164 15.5 17.8164C14.8965 17.8164 14.3633 17.7051 13.9004 17.4824C13.4375 17.2598 13.0479 16.9521 12.7314 16.5596C12.4209 16.1611 12.1865 15.7041 12.0283 15.1885C11.8701 14.667 11.791 14.1104 11.791 13.5186C11.791 12.9033 11.8877 12.3262 12.0811 11.7871C12.2744 11.2422 12.5527 10.7646 12.916 10.3545C13.2852 9.93848 13.7305 9.61328 14.252 9.37891C14.7734 9.13867 15.3594 9.01855 16.0098 9.01855C16.6836 9.01855 17.2842 9.15039 17.8115 9.41406C18.3389 9.67773 18.7871 10.0439 19.1562 10.5127C19.5254 10.9756 19.8066 11.5234 20 12.1562C20.1992 12.7891 20.2988 13.4805 20.2988 14.2305V15.0479C20.2988 15.8389 20.2197 16.5889 20.0615 17.2979C19.9033 18.0068 19.6602 18.6543 19.332 19.2402C19.0039 19.8262 18.585 20.333 18.0752 20.7607C17.5713 21.1885 16.9678 21.5195 16.2646 21.7539C15.5674 21.9824 14.7705 22.0967 13.874 22.0967H13.6719V20.1982Z" fill="black"/>
<path d="M13.6719 20.1982V19.9982C13.5614 19.9982 13.4719 20.0878 13.4719 20.1982H13.6719ZM15.7549 19.9082L15.686 19.7204L15.6854 19.7207L15.7549 19.9082ZM17.0293 19.0908L16.882 18.9556L16.8819 18.9557L17.0293 19.0908ZM17.7412 17.8164L17.55 17.7579L17.5495 17.7594L17.7412 17.8164ZM17.8203 12.5518L17.627 12.6031L17.6272 12.6039L17.8203 12.5518ZM17.3984 11.6113L17.2344 11.7258L17.2362 11.7283L17.3984 11.6113ZM16.7744 11.0488L16.6798 11.2251L16.6832 11.2268L16.7744 11.0488ZM14.5947 11.6465L14.4283 11.5355L14.4277 11.5365L14.5947 11.6465ZM14.2256 12.4814L14.0329 12.4279L14.032 12.4313L14.2256 12.4814ZM14.2168 14.459L14.0225 14.5066L14.0234 14.5101L14.2168 14.459ZM14.5771 15.2852L14.4101 15.3952L14.412 15.3979L14.5771 15.2852ZM15.1924 15.8564L15.0931 16.0301L15.0963 16.0319L15.1924 15.8564ZM16.8975 15.8828L16.9818 16.0642L16.9836 16.0633L16.8975 15.8828ZM17.5654 15.3994L17.7111 15.5365L17.713 15.5344L17.5654 15.3994ZM17.9961 14.7227L17.8116 14.6454L17.8107 14.6476L17.9961 14.7227ZM18.1719 13.958L18.2509 13.7743C18.1906 13.7483 18.1214 13.7537 18.0657 13.7885C18.0101 13.8234 17.9751 13.8833 17.9721 13.9489L18.1719 13.958ZM18.9893 14.3096H19.1893C19.1893 14.2297 19.1417 14.1574 19.0683 14.1258L18.9893 14.3096ZM18.7168 15.5752L18.5335 15.4952L18.5326 15.4974L18.7168 15.5752ZM17.9697 16.709L17.8246 16.5714L17.8245 16.5714L17.9697 16.709ZM16.8623 17.5176L16.9477 17.6984L16.9497 17.6975L16.8623 17.5176ZM12.7314 16.5596L12.5737 16.6825L12.5757 16.6851L12.7314 16.5596ZM12.0283 15.1885L11.8369 15.2465L11.8371 15.2471L12.0283 15.1885ZM12.0811 11.7871L12.2693 11.8546L12.2695 11.854L12.0811 11.7871ZM12.916 10.3545L12.7664 10.2218L12.7663 10.2219L12.916 10.3545ZM14.252 9.37891L14.3339 9.56134L14.3356 9.56056L14.252 9.37891ZM19.1562 10.5127L18.9991 10.6364L18.9999 10.6374L19.1562 10.5127ZM20 12.1562L19.8087 12.2147L19.8092 12.2163L20 12.1562ZM18.0752 20.7607L17.9466 20.6075L17.9458 20.6083L18.0752 20.7607ZM16.2646 21.7539L16.3269 21.944L16.3279 21.9436L16.2646 21.7539ZM13.6719 22.0967H13.4719C13.4719 22.2071 13.5614 22.2967 13.6719 22.2967V22.0967ZM13.6719 20.3982H13.8389V19.9982H13.6719V20.3982ZM13.8389 20.3982C14.6105 20.3982 15.2743 20.2997 15.8244 20.0957L15.6854 19.7207C15.1925 19.9034 14.579 19.9982 13.8389 19.9982V20.3982ZM15.8237 20.096C16.3758 19.8936 16.8293 19.605 17.1767 19.226L16.8819 18.9557C16.5847 19.2798 16.1887 19.5361 15.686 19.7204L15.8237 20.096ZM17.1766 19.2261C17.5265 18.845 17.7783 18.393 17.9329 17.8735L17.5495 17.7594C17.4112 18.2242 17.1884 18.6218 16.882 18.9556L17.1766 19.2261ZM17.9325 17.8749C18.0914 17.3552 18.1697 16.7843 18.1697 16.1641H17.7697C17.7697 16.7508 17.6957 17.2815 17.55 17.7579L17.9325 17.8749ZM18.1697 16.1641V13.8438H17.7697V16.1641H18.1697ZM18.1697 13.8438C18.1697 13.3387 18.1187 12.8898 18.0134 12.4997L17.6272 12.6039C17.7212 12.952 17.7697 13.3644 17.7697 13.8438H18.1697ZM18.0136 12.5004C17.9092 12.1075 17.7596 11.7704 17.5607 11.4944L17.2362 11.7283C17.4005 11.9562 17.5322 12.246 17.627 12.6031L18.0136 12.5004ZM17.5625 11.4969C17.3706 11.2219 17.1388 11.0107 16.8656 10.8708L16.6832 11.2268C16.8905 11.333 17.0747 11.4969 17.2344 11.7258L17.5625 11.4969ZM16.869 10.8726C16.5994 10.7279 16.309 10.6555 16.001 10.6555V11.0555C16.2437 11.0555 16.469 11.1119 16.6799 11.2251L16.869 10.8726ZM16.001 10.6555C15.6643 10.6555 15.3584 10.7336 15.0895 10.8949L15.2953 11.2379C15.4951 11.118 15.7283 11.0555 16.001 11.0555V10.6555ZM15.0895 10.8949C14.8277 11.052 14.6074 11.2669 14.4283 11.5355L14.7611 11.7574C14.9101 11.5339 15.0883 11.3621 15.2953 11.2379L15.0895 10.8949ZM14.4277 11.5365C14.2566 11.7964 14.1256 12.0943 14.0329 12.4279L14.4183 12.535C14.5014 12.2358 14.6165 11.9771 14.7618 11.7565L14.4277 11.5365ZM14.032 12.4313C13.9454 12.7652 13.9025 13.1162 13.9025 13.4834H14.3025C14.3025 13.1475 14.3417 12.8305 14.4192 12.5316L14.032 12.4313ZM13.9025 13.4834C13.9025 13.8383 13.9423 14.1795 14.0226 14.5066L14.411 14.4113C14.3389 14.1173 14.3025 13.8082 14.3025 13.4834H13.9025ZM14.0234 14.5101C14.1104 14.8391 14.2387 15.1349 14.4101 15.3952L14.7442 15.1752C14.5992 14.955 14.4873 14.6999 14.4102 14.4079L14.0234 14.5101ZM14.412 15.3979C14.5927 15.6625 14.8201 15.874 15.0932 16.0301L15.2916 15.6828C15.0725 15.5576 14.8898 15.3883 14.7423 15.1724L14.412 15.3979ZM15.0963 16.0319C15.3765 16.1853 15.6977 16.2586 16.0537 16.2586V15.8586C15.7534 15.8586 15.5005 15.7971 15.2884 15.681L15.0963 16.0319ZM16.0537 16.2586C16.3899 16.2586 16.7005 16.195 16.9818 16.0642L16.8131 15.7015C16.5905 15.805 16.3386 15.8586 16.0537 15.8586V16.2586ZM16.9836 16.0633C17.2628 15.9301 17.5059 15.7545 17.7111 15.5365L17.4198 15.2623C17.25 15.4427 17.0478 15.5895 16.8113 15.7023L16.9836 16.0633ZM17.713 15.5344C17.9158 15.3126 18.0725 15.0669 18.1815 14.7977L17.8107 14.6476C17.7204 14.8706 17.59 15.0761 17.4178 15.2645L17.713 15.5344ZM18.1806 14.7999C18.2946 14.5276 18.3588 14.2497 18.3717 13.9671L17.9721 13.9489C17.9615 14.182 17.9085 14.4138 17.8116 14.6454L18.1806 14.7999ZM18.0929 14.1417L18.9102 14.4933L19.0683 14.1258L18.2509 13.7743L18.0929 14.1417ZM18.7893 14.3096C18.7893 14.7081 18.7048 15.1028 18.5335 15.4952L18.9001 15.6552C19.0921 15.2155 19.1893 14.7665 19.1893 14.3096H18.7893ZM18.5326 15.4974C18.3665 15.8904 18.131 16.2483 17.8246 16.5714L18.1149 16.8466C18.453 16.49 18.7156 16.092 18.901 15.653L18.5326 15.4974ZM17.8245 16.5714C17.525 16.8876 17.1755 17.1429 16.7749 17.3377L16.9497 17.6975C17.3928 17.4821 17.7816 17.1983 18.1149 16.8465L17.8245 16.5714ZM16.7769 17.3367C16.3829 17.5228 15.9581 17.6164 15.5 17.6164V18.0164C16.0146 18.0164 16.498 17.9108 16.9477 17.6984L16.7769 17.3367ZM15.5 17.6164C14.9213 17.6164 14.4186 17.5097 13.9871 17.3022L13.8137 17.6627C14.308 17.9004 14.8717 18.0164 15.5 18.0164V17.6164ZM13.9871 17.3022C13.5505 17.0922 13.1846 16.8031 12.8872 16.4341L12.5757 16.6851C12.9111 17.1012 13.3245 17.4274 13.8137 17.6627L13.9871 17.3022ZM12.8892 16.4366C12.5946 16.0587 12.3711 15.6237 12.2195 15.1298L11.8371 15.2471C12.002 15.7845 12.2472 16.2636 12.5737 16.6825L12.8892 16.4366ZM12.2197 15.1304C12.0677 14.6293 11.991 14.0924 11.991 13.5186H11.591C11.591 14.1283 11.6726 14.7047 11.8369 15.2465L12.2197 15.1304ZM11.991 13.5186C11.991 12.9246 12.0843 12.3705 12.2693 11.8546L11.8928 11.7196C11.6911 12.2819 11.591 12.882 11.591 13.5186H11.991ZM12.2695 11.854C12.4548 11.3319 12.7204 10.877 13.0657 10.4871L12.7663 10.2219C12.3851 10.6523 12.094 11.1525 11.8926 11.7202L12.2695 11.854ZM13.0656 10.4872C13.4155 10.093 13.8375 9.78444 14.3339 9.56133L14.17 9.19648C13.6234 9.44212 13.1549 9.78398 12.7664 10.2218L13.0656 10.4872ZM14.3356 9.56056C14.8276 9.33392 15.3844 9.21855 16.0098 9.21855V8.81855C15.3343 8.81855 14.7193 8.94342 14.1683 9.19725L14.3356 9.56056ZM16.0098 9.21855C16.657 9.21855 17.2262 9.34503 17.7221 9.59295L17.901 9.23518C17.3421 8.95576 16.7102 8.81855 16.0098 8.81855V9.21855ZM17.7221 9.59295C18.2228 9.84328 18.648 10.1905 18.9991 10.6364L19.3134 10.389C18.9262 9.89735 18.455 9.51218 17.901 9.23518L17.7221 9.59295ZM18.9999 10.6374C19.3516 11.0784 19.6219 11.6031 19.8087 12.2147L20.1913 12.0978C19.9914 11.4437 19.6992 10.8728 19.3126 10.388L18.9999 10.6374ZM19.8092 12.2163C20.0016 12.8273 20.0988 13.4982 20.0988 14.2305H20.4988C20.4988 13.4627 20.3968 12.7508 20.1908 12.0962L19.8092 12.2163ZM20.0988 14.2305V15.0479H20.4988V14.2305H20.0988ZM20.0988 15.0479C20.0988 15.8255 20.0211 16.5608 19.8663 17.2543L20.2567 17.3414C20.4184 16.6169 20.4988 15.8522 20.4988 15.0479H20.0988ZM19.8663 17.2543C19.712 17.9459 19.4754 18.5749 19.1575 19.1425L19.5065 19.338C19.8449 18.7337 20.0946 18.0678 20.2567 17.3414L19.8663 17.2543ZM19.1575 19.1425C18.8411 19.7075 18.4377 20.1955 17.9466 20.6075L18.2038 20.914C18.7322 20.4705 19.1667 19.9448 19.5065 19.338L19.1575 19.1425ZM17.9458 20.6083C17.4636 21.0176 16.8832 21.3369 16.2014 21.5642L16.3279 21.9436C17.0523 21.7022 17.679 21.3594 18.2046 20.9132L17.9458 20.6083ZM16.2024 21.5639C15.5291 21.7845 14.7539 21.8967 13.874 21.8967V22.2967C14.7871 22.2967 15.6057 22.1803 16.3269 21.944L16.2024 21.5639ZM13.874 21.8967H13.6719V22.2967H13.874V21.8967ZM13.8719 22.0967V20.1982H13.4719V22.0967H13.8719Z" fill="white"/>
</g>
<defs>
<clipPath id="clip0_4_13">
<rect width="32" height="32" fill="white"/>
</clipPath>
</defs>
</svg>
